<?xml version="1.0" encoding="UTF-8" ?>
<!DOCTYPE svg PUBLIC "-//W3C//DTD SVG 1.1//EN" "http://www.w3.org/Graphics/SVG/1.1/DTD/svg11.dtd">
<svg width="1197pt" height="510pt" viewBox="0 0 1197 510" version="1.1" xmlns="http://www.w3.org/2000/svg">
<path fill="#ffffff" stroke="#ffffff" stroke-width="0.09375" opacity="1.00" d=" M 0.0 0.0 L 1197.0 0.0 L 1197.0 510.0 L 0.0 510.0 L 0.0 0.0 Z" />
<path fill="#1f1f20" stroke="#1f1f20" stroke-width="0.09375" opacity="1.00" d=" M 756.9 107.9 C 761.6 105.3 766.6 103.1 771.8 101.7 C 777.4 103.0 783.4 102.8 788.7 105.4 C 794.1 107.6 798.9 110.9 803.1 114.9 C 808.5 119.6 811.1 126.4 814.3 132.6 C 816.2 137.2 816.5 142.4 817.6 147.2 C 819.4 147.3 821.2 147.3 823.0 147.5 C 822.7 150.6 819.8 152.7 816.9 153.4 C 816.4 155.9 816.0 158.3 815.8 160.9 C 817.2 160.2 818.7 159.5 820.2 158.8 C 820.3 156.9 820.4 154.9 820.8 153.0 C 823.7 153.9 824.8 156.4 826.0 159.0 C 832.1 162.8 839.9 163.4 847.0 162.6 C 850.1 165.0 853.8 163.8 857.3 163.0 C 857.1 163.7 856.8 165.0 856.6 165.7 C 854.8 166.4 852.9 167.1 851.0 167.5 C 848.4 168.3 846.4 165.7 843.9 165.7 C 838.1 165.6 832.2 165.2 826.7 163.2 C 824.6 162.3 822.3 162.8 820.1 162.7 C 819.3 163.8 818.4 164.9 817.5 166.0 C 817.5 170.3 818.9 174.4 820.3 178.5 C 821.4 183.0 822.5 187.6 823.6 192.1 C 825.0 202.6 826.4 213.2 827.5 223.7 C 829.4 231.3 828.5 239.2 828.4 246.9 C 829.7 244.7 832.0 243.3 833.9 241.7 C 834.7 239.5 834.0 236.9 834.8 234.7 C 835.3 233.1 837.0 232.8 838.2 232.1 C 838.5 236.0 838.3 239.9 838.9 243.8 C 840.8 245.6 843.8 245.2 846.1 246.2 C 851.0 248.2 855.8 250.8 860.2 253.7 C 869.9 259.4 879.9 264.4 888.7 271.3 C 893.5 275.5 900.3 274.8 906.1 276.0 C 910.8 276.5 915.3 278.4 920.0 277.8 C 923.8 277.6 927.6 279.3 931.3 278.3 C 936.2 276.9 941.1 276.1 945.8 274.4 C 950.6 275.7 954.2 279.2 958.3 281.6 C 961.3 283.4 963.9 285.7 966.9 287.2 C 973.1 290.7 977.6 296.4 983.0 301.0 C 984.2 301.9 984.7 303.5 984.8 305.1 C 985.5 310.8 988.0 316.1 990.7 321.2 C 989.5 324.8 987.9 328.5 984.8 330.9 C 989.6 334.3 995.0 336.5 1000.5 338.6 C 1004.1 339.9 1006.4 344.6 1010.6 343.5 C 1011.9 345.3 1013.3 346.8 1015.1 348.0 C 1018.3 350.4 1020.6 353.8 1023.7 356.3 C 1027.5 358.2 1030.6 361.5 1035.1 361.7 C 1040.1 363.6 1045.4 361.5 1050.6 362.6 C 1057.3 363.7 1063.6 367.4 1070.6 366.3 C 1072.1 368.5 1072.9 371.3 1075.6 372.4 C 1079.3 375.3 1084.1 375.2 1088.6 375.8 C 1088.5 374.5 1088.4 373.2 1088.4 371.9 C 1090.0 371.1 1091.5 370.2 1093.0 369.2 C 1095.4 372.2 1096.7 375.9 1099.6 378.5 C 1101.8 380.4 1103.4 383.0 1104.8 385.6 C 1107.3 383.3 1110.3 380.8 1114.0 381.1 C 1117.1 381.2 1120.2 380.6 1123.1 379.2 C 1124.0 379.6 1124.9 380.0 1125.8 380.4 C 1125.4 381.8 1125.1 383.2 1124.6 384.6 C 1121.8 386.4 1118.6 387.6 1115.6 389.1 C 1115.8 391.7 1114.0 393.5 1111.9 394.8 C 1108.1 397.4 1105.6 401.8 1101.0 403.1 C 1100.0 403.4 1099.0 403.7 1098.1 404.0 C 1097.8 404.9 1097.5 405.8 1097.2 406.7 C 1096.9 407.5 1096.6 408.3 1096.4 409.1 C 1097.3 411.5 1098.1 413.8 1098.7 416.2 C 1094.3 418.3 1090.7 422.9 1085.4 422.8 C 1082.8 422.3 1080.2 421.8 1077.6 421.3 C 1077.3 419.8 1077.0 418.3 1076.7 416.9 C 1075.4 418.2 1074.2 419.6 1073.0 421.0 C 1071.9 421.2 1070.7 421.4 1069.6 421.6 C 1069.2 422.2 1068.5 423.3 1068.1 423.9 C 1065.5 421.4 1063.5 418.1 1060.1 416.6 C 1058.9 416.0 1057.7 415.5 1056.5 414.9 C 1053.2 413.1 1049.6 411.8 1046.0 410.9 C 1042.8 409.3 1040.0 407.0 1037.0 404.9 C 1033.3 402.6 1032.2 397.2 1027.4 396.3 C 1028.9 394.4 1030.5 392.6 1032.0 390.8 C 1026.0 384.6 1019.5 378.3 1011.0 375.7 C 1010.0 376.7 1009.0 377.8 1008.1 378.8 C 1010.2 380.0 1012.1 381.5 1013.9 383.1 C 1012.4 385.8 1010.3 388.3 1007.0 388.4 C 1001.5 387.1 996.5 384.5 991.1 383.1 C 987.3 382.7 983.8 381.2 980.0 380.8 C 973.7 380.3 968.4 376.4 962.6 374.3 C 958.1 372.7 954.4 369.7 950.0 368.0 C 944.5 365.0 938.4 363.1 933.1 359.9 C 925.3 356.2 918.4 350.9 910.7 347.1 C 908.0 345.6 905.2 348.8 902.5 347.4 C 893.5 343.8 881.8 342.6 877.1 332.8 C 876.9 332.4 876.5 331.7 876.4 331.3 C 875.9 329.7 873.7 330.1 872.5 330.6 C 872.0 330.8 870.9 331.1 870.3 331.3 C 870.8 331.8 871.2 332.4 871.7 332.9 C 867.6 332.7 863.5 333.1 859.6 334.5 C 853.9 336.6 847.6 336.9 842.0 339.3 C 839.9 337.7 837.9 335.8 835.4 335.0 C 831.2 334.9 827.1 336.8 823.0 335.2 C 822.3 336.0 821.6 336.8 820.9 337.6 C 818.8 336.1 816.8 334.1 814.0 334.0 C 807.5 333.8 800.8 332.5 794.4 334.6 L 793.4 334.9 C 793.7 333.9 794.0 333.0 794.3 332.0 C 790.9 329.9 789.3 326.2 787.2 322.9 C 785.5 320.3 786.2 317.1 786.8 314.2 C 782.3 308.6 780.4 301.5 776.4 295.6 C 775.4 296.6 774.4 297.7 773.3 298.7 C 770.6 298.2 767.8 297.8 765.1 297.4 C 764.6 298.0 764.2 298.5 763.7 299.1 C 762.2 298.1 760.7 297.1 758.9 296.4 C 765.3 292.1 767.3 283.9 773.2 279.1 C 772.6 277.2 772.1 275.3 771.6 273.3 C 770.7 274.4 769.8 275.5 768.9 276.5 C 766.0 269.9 764.9 262.8 763.0 255.9 C 761.3 252.9 758.5 250.8 756.1 248.3 C 751.8 249.6 748.1 247.1 744.0 246.2 C 738.5 247.8 733.0 250.2 727.0 249.8 C 719.8 250.1 711.5 249.5 706.4 243.6 C 703.0 239.4 699.5 235.2 695.5 231.5 C 692.6 229.1 693.3 224.8 690.9 222.1 C 686.1 215.6 683.0 207.2 685.1 199.1 C 685.6 197.2 686.1 193.5 688.9 194.3 C 689.7 197.6 687.5 200.7 687.6 204.0 C 686.9 210.2 690.0 215.8 692.9 221.1 C 693.9 223.4 696.3 224.4 698.4 225.5 C 699.1 230.0 701.8 233.9 705.0 237.0 C 707.9 239.8 710.3 243.5 714.4 244.6 C 719.1 246.0 724.0 247.0 729.0 247.0 C 735.6 246.2 742.1 244.1 748.0 241.0 C 752.3 238.3 756.5 235.2 761.7 234.3 C 761.5 233.5 761.4 232.6 761.3 231.8 C 758.9 230.2 756.7 228.2 755.6 225.5 C 754.4 222.8 752.4 220.4 751.5 217.6 C 750.4 210.7 753.4 203.9 752.5 197.0 C 752.1 193.9 752.5 190.8 751.9 187.8 C 750.1 182.5 748.4 177.1 748.5 171.4 C 751.1 175.2 752.0 179.8 753.9 184.0 C 753.2 181.4 752.3 178.9 751.6 176.3 C 750.7 173.5 752.2 170.6 751.1 167.9 C 749.5 163.4 748.3 158.8 748.1 154.0 C 740.8 155.8 733.3 154.0 726.0 153.9 C 719.5 153.9 713.4 151.4 708.1 148.0 C 706.9 147.3 706.3 146.1 705.6 145.1 C 710.6 146.1 714.7 149.7 719.8 150.4 C 723.9 151.2 728.1 151.4 732.2 151.8 C 737.5 152.2 742.7 150.8 747.9 151.4 C 747.7 147.3 746.9 140.3 752.7 140.0 C 752.8 144.1 750.9 147.9 751.1 151.9 C 751.2 162.1 755.6 171.5 759.1 180.8 C 761.3 187.1 765.4 193.0 764.7 200.0 C 766.5 213.7 771.0 227.0 772.0 240.9 C 773.9 248.8 774.9 257.0 776.5 265.0 C 777.1 268.7 776.1 272.5 776.0 276.2 C 776.8 281.4 778.2 286.5 779.3 291.6 C 780.4 296.9 783.3 301.5 785.6 306.4 C 787.9 311.2 792.1 314.6 795.0 319.0 C 795.7 320.0 796.7 320.6 797.8 321.1 C 809.8 325.1 822.6 323.0 835.0 322.3 C 842.9 322.6 850.8 321.8 858.6 320.7 C 866.2 319.2 873.9 318.8 881.4 316.7 C 891.5 317.5 900.8 312.4 910.3 309.6 C 915.6 308.8 920.6 306.6 925.9 306.1 C 929.9 305.7 933.8 304.6 937.8 304.2 C 943.3 307.0 948.1 311.6 954.6 311.8 C 954.8 312.7 955.1 313.6 955.4 314.6 C 958.5 313.9 961.6 314.7 964.5 315.6 C 966.9 316.5 967.4 319.3 968.8 321.3 C 971.8 323.1 975.1 324.2 978.3 325.8 C 982.0 322.2 978.9 316.9 979.9 312.6 C 981.6 309.7 981.8 306.0 980.0 303.0 C 970.6 293.0 959.1 285.1 946.8 279.1 C 942.0 279.0 937.2 279.6 932.7 281.5 C 926.9 282.0 920.9 282.2 915.1 281.0 C 908.3 279.5 901.3 278.6 894.4 277.5 C 890.6 276.7 886.8 277.6 883.0 277.6 C 880.0 277.6 877.0 276.8 874.0 276.7 C 859.6 276.7 844.8 276.0 830.7 279.6 C 828.2 282.3 825.9 285.4 822.1 286.0 C 821.9 285.3 821.6 283.8 821.4 283.1 C 823.0 282.4 824.7 281.8 826.2 280.9 C 826.6 278.0 826.8 275.1 825.9 272.4 C 825.4 269.5 826.1 266.6 825.5 263.7 C 824.5 252.6 825.9 241.3 824.7 230.1 C 823.8 218.8 822.1 207.5 820.9 196.2 C 820.1 190.7 818.3 185.3 817.1 179.9 C 815.6 173.5 812.9 167.5 812.3 161.0 C 812.3 157.1 813.5 153.4 813.6 149.6 C 813.7 141.3 812.1 132.8 807.3 125.9 C 803.7 117.4 795.7 112.0 787.6 108.4 C 783.8 106.5 779.5 106.6 775.4 106.2 C 775.0 107.5 774.6 108.8 774.3 110.1 C 772.8 108.9 771.4 107.4 769.7 106.4 C 764.1 106.7 758.7 109.8 755.1 114.1 C 753.0 116.5 751.0 119.1 748.9 121.5 C 742.9 120.2 737.0 122.5 731.3 124.2 C 726.3 125.6 722.2 129.0 717.6 131.4 C 713.6 133.4 709.9 135.7 706.2 138.1 C 706.4 139.6 706.7 141.1 706.7 142.6 C 705.6 143.5 704.4 144.2 703.2 144.9 C 702.1 143.9 701.1 142.8 700.1 141.8 C 697.5 145.2 692.3 146.4 689.1 143.2 C 674.3 150.4 659.0 156.3 643.3 161.2 C 631.5 164.8 619.3 167.2 607.1 169.1 C 602.5 169.9 597.8 169.9 593.2 171.3 C 597.2 177.3 601.5 183.3 603.7 190.2 C 610.1 203.7 612.1 218.7 614.5 233.3 C 613.3 231.9 612.2 230.6 611.1 229.1 C 608.6 220.2 607.9 210.9 605.1 202.0 C 603.5 196.9 600.9 192.2 598.9 187.2 C 596.6 181.2 592.6 176.0 588.0 171.7 C 590.5 176.5 594.4 180.4 596.4 185.4 C 599.4 193.5 601.6 201.9 603.6 210.3 C 606.8 225.1 603.1 240.1 602.8 255.1 C 602.3 261.2 600.4 267.1 599.1 273.1 C 599.1 272.5 599.1 271.2 599.1 270.6 C 598.5 270.6 597.5 270.5 596.9 270.5 C 598.9 263.0 600.6 255.3 600.6 247.5 C 600.6 240.3 602.5 233.2 602.1 226.0 C 601.7 219.7 602.0 213.3 599.9 207.3 C 596.8 197.5 595.3 186.6 588.3 178.7 C 586.0 175.8 583.0 172.6 579.0 172.7 C 571.4 172.5 564.9 168.1 557.6 166.5 C 560.1 171.9 563.1 177.1 565.3 182.7 C 568.0 190.1 572.0 197.1 572.5 205.1 C 573.5 220.0 574.4 234.9 576.1 249.7 C 575.5 252.6 574.9 255.5 574.1 258.3 C 575.0 248.8 572.3 239.5 572.3 230.0 C 572.2 225.6 571.1 221.3 570.6 217.0 C 569.9 212.2 570.5 207.4 569.6 202.6 C 568.5 195.1 564.2 188.6 561.7 181.5 C 559.0 176.1 556.3 170.2 551.0 166.9 C 551.9 172.6 555.2 177.5 557.2 182.8 C 556.9 183.4 556.4 184.5 556.2 185.1 C 554.3 180.6 551.9 176.1 548.4 172.6 C 545.5 169.7 545.2 164.3 540.7 163.2 C 530.6 159.4 520.2 156.7 509.8 153.9 C 494.9 150.8 479.4 154.3 465.9 160.8 C 460.3 164.1 454.7 167.6 450.3 172.4 C 446.1 177.6 443.4 183.9 438.7 188.8 C 435.5 193.0 432.9 197.7 430.3 202.3 C 424.5 214.1 423.1 227.4 418.5 239.6 C 415.9 250.3 414.8 261.4 412.0 272.1 C 410.5 278.2 410.6 284.5 410.4 290.7 C 408.5 307.4 407.0 324.2 408.2 341.0 C 408.2 343.3 410.2 344.9 411.0 347.0 C 410.8 348.9 408.7 349.6 407.5 350.7 C 404.8 348.5 402.0 346.5 399.0 344.9 C 390.0 340.5 382.3 334.1 373.8 329.1 C 363.5 324.2 353.2 319.3 343.4 313.6 C 333.6 308.0 322.0 307.6 311.7 303.3 C 307.5 301.5 303.1 300.3 298.7 299.4 C 286.4 297.1 274.2 293.9 262.1 290.7 C 253.5 293.3 246.3 298.9 239.5 304.5 C 233.8 310.4 228.9 317.2 225.0 324.4 C 234.1 327.1 243.4 329.1 252.1 332.9 C 252.0 333.8 251.7 335.7 251.6 336.7 C 245.8 334.4 240.1 331.9 234.0 330.8 C 229.6 330.3 225.7 328.2 221.5 327.3 C 208.0 322.9 194.2 319.6 180.4 316.5 C 174.5 315.9 169.3 312.8 163.6 311.3 C 160.6 310.5 157.9 309.0 155.0 308.1 C 147.8 308.9 144.1 315.7 138.9 319.9 C 135.1 322.9 132.7 327.3 130.4 331.5 C 126.4 337.8 124.7 345.4 124.8 352.8 C 124.4 357.1 124.4 362.0 121.5 365.5 C 118.1 370.0 112.9 373.1 110.0 378.2 C 108.3 380.8 109.3 384.1 109.9 386.9 C 112.0 388.8 115.1 389.0 117.8 389.4 C 128.7 390.3 139.2 393.0 149.9 395.3 C 180.4 400.1 209.0 413.3 239.7 417.5 C 249.8 419.4 259.7 421.8 269.6 424.5 C 274.3 425.4 279.1 426.1 283.8 427.4 C 292.1 429.8 300.9 430.2 309.4 431.9 C 316.7 433.9 324.9 434.4 331.9 430.9 C 331.0 432.0 330.2 433.2 329.4 434.4 C 330.3 435.0 331.1 435.6 332.0 436.2 C 330.7 437.9 329.4 439.6 328.0 441.2 C 331.3 441.1 334.4 441.8 337.4 443.1 C 337.1 443.2 336.4 443.6 336.1 443.8 C 330.9 442.3 326.1 445.2 321.0 445.6 C 318.9 445.7 317.1 446.7 315.3 447.4 C 312.7 446.9 310.5 445.1 307.9 444.7 C 303.1 444.0 298.2 444.3 293.4 445.0 C 286.8 443.7 280.3 441.7 273.6 440.6 C 266.5 439.4 259.5 437.2 252.3 436.8 C 243.7 436.1 235.7 432.5 227.1 431.4 C 221.7 429.5 216.2 427.4 210.6 426.1 C 202.2 422.6 193.3 420.8 184.4 419.3 C 182.2 418.8 180.0 418.2 178.0 417.0 C 174.0 413.8 169.4 411.3 164.4 410.2 C 161.3 409.0 158.4 407.1 155.0 406.9 C 151.2 406.8 147.3 407.2 143.5 406.3 C 138.3 405.0 133.0 404.5 127.7 404.0 C 122.9 402.1 118.0 400.2 112.8 400.5 C 109.2 400.6 106.0 398.7 102.7 397.6 L 102.3 397.0 C 99.7 392.1 93.4 393.0 89.2 390.6 C 87.5 387.7 87.5 384.1 87.0 380.8 C 88.9 381.2 90.8 381.5 92.8 381.5 C 91.0 379.9 89.4 377.8 87.0 377.5 C 83.9 378.7 81.6 381.4 78.4 382.0 C 75.0 382.1 71.5 381.5 68.1 381.7 C 65.3 382.3 63.1 384.2 60.8 385.8 C 56.2 389.0 50.1 390.8 44.7 388.4 C 38.3 385.6 29.6 383.3 27.7 375.6 C 26.8 369.6 26.5 363.3 28.7 357.7 C 31.3 349.6 35.8 342.4 40.3 335.3 C 41.4 333.5 42.8 331.8 44.3 330.3 C 46.5 328.2 49.7 327.6 52.2 325.9 C 52.5 322.1 51.6 318.0 53.3 314.3 C 54.3 311.3 56.7 309.1 58.8 306.8 C 63.1 301.1 68.2 296.0 74.1 292.0 C 77.8 289.3 82.4 289.1 86.8 288.6 C 89.4 292.4 93.9 293.8 97.2 296.9 C 99.9 299.5 103.8 300.1 107.0 302.0 C 109.9 301.7 112.8 301.2 115.7 301.3 C 116.6 302.4 117.4 303.5 118.3 304.6 C 122.7 305.1 127.2 305.6 131.7 305.8 C 133.0 304.7 133.9 303.2 135.3 302.3 C 142.5 301.8 149.6 303.4 156.7 303.3 C 159.7 305.7 162.7 308.3 166.7 308.5 C 176.7 312.1 187.1 315.0 197.6 316.6 C 205.5 318.2 212.9 321.7 220.8 323.0 C 222.2 321.7 223.1 320.1 224.1 318.5 C 222.6 318.1 221.6 316.8 222.3 315.2 C 223.2 312.4 224.9 310.0 226.9 307.9 C 235.0 299.7 242.6 290.5 253.4 285.8 C 249.0 283.5 246.8 278.9 244.0 275.0 C 241.3 271.7 241.1 267.0 238.1 263.9 C 234.6 260.9 230.4 258.6 225.9 257.6 C 223.5 262.2 217.9 262.9 214.5 266.4 C 206.4 270.0 202.9 278.8 196.0 283.9 C 192.6 286.3 190.6 289.9 187.6 292.6 C 182.3 298.1 174.7 300.3 168.9 305.1 C 166.3 305.6 166.3 302.4 165.7 300.7 C 164.1 302.0 162.7 303.5 161.0 304.7 C 159.3 304.3 158.0 302.1 159.5 300.7 C 164.0 298.8 167.4 295.1 171.3 292.3 C 173.5 290.8 174.7 288.4 176.2 286.3 C 180.2 286.3 184.5 285.9 187.9 288.1 C 194.7 281.8 201.2 275.2 207.0 267.9 C 210.4 262.7 217.1 262.0 221.9 258.6 C 221.5 256.9 220.1 255.3 218.2 255.8 C 213.1 257.4 208.1 259.5 203.9 262.8 C 198.6 266.9 191.7 269.3 188.4 275.5 C 185.6 278.6 184.3 282.4 184.1 286.5 C 183.0 286.1 181.9 285.7 180.8 285.3 C 180.3 283.4 179.5 280.8 181.4 279.4 C 183.2 277.5 185.0 275.5 186.3 273.2 C 188.9 268.9 193.2 266.0 197.4 263.4 C 203.8 259.1 210.0 254.2 217.2 251.3 C 226.4 252.4 235.9 255.6 242.4 262.5 C 245.5 270.1 249.3 277.6 255.9 282.8 C 255.5 283.4 254.7 284.7 254.3 285.4 C 256.2 284.5 257.9 283.1 259.9 282.4 C 263.2 284.7 265.9 288.1 270.0 289.2 C 283.2 293.5 297.0 295.5 310.2 299.8 C 320.9 303.3 331.6 306.4 342.2 310.1 C 345.5 311.5 347.5 307.5 350.2 306.3 C 358.7 302.3 365.1 295.1 372.9 290.0 C 379.4 287.3 384.3 282.1 389.5 277.6 C 396.6 273.3 402.4 267.2 410.2 264.0 C 412.8 255.8 413.0 247.1 415.7 238.9 C 418.9 228.5 421.3 218.0 424.8 207.7 C 427.9 196.6 435.9 188.0 440.9 177.8 C 441.8 175.5 444.2 174.5 445.8 172.8 C 451.9 165.4 459.8 159.4 468.8 155.9 C 477.8 152.5 487.2 149.1 497.0 149.4 C 511.8 149.0 525.4 156.1 539.8 158.5 C 544.8 159.9 549.9 164.0 555.1 161.3 C 560.2 165.5 566.8 167.4 573.1 168.9 C 576.9 169.8 580.6 169.0 584.2 167.9 C 588.2 168.1 592.3 169.1 596.3 168.3 C 617.4 165.4 638.6 161.4 658.5 153.4 C 672.5 148.6 685.8 141.8 699.0 134.9 C 700.4 135.0 701.7 135.9 703.0 136.4 C 704.7 134.3 705.9 131.8 708.4 130.5 C 713.9 127.5 719.4 124.5 725.4 122.6 C 731.4 121.0 736.9 117.8 743.1 117.0 C 744.9 116.3 746.6 117.3 748.2 118.0 C 750.6 115.1 753.1 112.3 755.6 109.4 C 757.1 107.9 756.3 105.6 756.6 103.8 C 756.7 104.8 756.8 106.9 756.9 107.9 Z" />
<path fill="#ffffff" stroke="#ffffff" stroke-width="0.09375" opacity="1.00" d=" M 755.1 114.1 C 758.7 109.8 764.1 106.7 769.7 106.4 C 771.4 107.4 772.8 108.9 774.3 110.1 C 774.6 108.8 775.0 107.5 775.4 106.2 C 779.5 106.6 783.8 106.5 787.6 108.4 C 795.7 112.0 803.7 117.4 807.3 125.9 C 812.1 132.8 813.7 141.3 813.6 149.6 C 813.5 153.4 812.3 157.1 812.3 161.0 C 812.9 167.5 815.6 173.5 817.1 179.9 C 818.3 185.3 820.1 190.7 820.9 196.2 C 822.1 207.5 823.8 218.8 824.7 230.1 C 825.9 241.3 824.5 252.6 825.5 263.7 C 826.1 266.6 825.4 269.5 825.9 272.4 C 826.8 275.1 826.6 278.0 826.2 280.9 C 824.7 281.8 823.0 282.4 821.4 283.1 C 821.6 283.8 821.9 285.3 822.1 286.0 C 825.9 285.4 828.2 282.3 830.7 279.6 C 844.8 276.0 859.6 276.7 874.0 276.7 C 877.0 276.8 880.0 277.6 883.0 277.6 C 886.8 277.6 890.6 276.7 894.4 277.5 C 901.3 278.6 908.3 279.5 915.1 281.0 C 920.9 282.2 926.9 282.0 932.7 281.5 C 937.2 279.6 942.0 279.0 946.8 279.1 C 959.1 285.1 970.6 293.0 980.0 303.0 C 981.8 306.0 981.6 309.7 979.9 312.6 C 978.9 316.9 982.0 322.2 978.3 325.8 C 975.1 324.2 971.8 323.1 968.8 321.3 C 967.4 319.3 966.9 316.5 964.5 315.6 C 961.6 314.7 958.5 313.9 955.4 314.6 C 955.1 313.6 954.8 312.7 954.6 311.8 C 948.1 311.6 943.3 307.0 937.8 304.2 C 933.8 304.6 929.9 305.7 925.9 306.1 C 920.6 306.6 915.6 308.8 910.3 309.6 C 900.8 312.4 891.5 317.5 881.4 316.7 C 873.9 318.8 866.2 319.2 858.6 320.7 C 850.8 321.8 842.9 322.6 835.0 322.3 C 822.6 323.0 809.8 325.1 797.8 321.1 C 796.7 320.6 795.7 320.0 795.0 319.0 C 792.1 314.6 787.9 311.2 785.6 306.4 C 783.3 301.5 780.4 296.9 779.3 291.6 C 778.2 286.5 776.8 281.4 776.0 276.2 C 776.1 272.5 777.1 268.7 776.5 265.0 C 774.9 257.0 773.9 248.8 772.0 240.9 C 771.0 227.0 766.5 213.7 764.7 200.0 C 765.4 193.0 761.3 187.1 759.1 180.8 C 755.6 171.5 751.2 162.1 751.1 151.9 C 750.9 147.9 752.8 144.1 752.7 140.0 C 746.9 140.3 747.7 147.3 747.9 151.4 C 742.7 150.8 737.5 152.2 732.2 151.8 C 728.1 151.4 723.9 151.2 719.8 150.4 C 714.7 149.7 710.6 146.1 705.6 145.1 C 706.3 146.1 706.9 147.3 708.1 148.0 C 713.4 151.4 719.5 153.9 726.0 153.9 C 733.3 154.0 740.8 155.8 748.1 154.0 C 748.3 158.8 749.5 163.4 751.1 167.9 C 752.2 170.6 750.7 173.5 751.6 176.3 C 752.3 178.9 753.2 181.4 753.9 184.0 C 752.0 179.8 751.1 175.2 748.5 171.4 C 748.4 177.1 750.1 182.5 751.9 187.8 C 752.5 190.8 752.1 193.9 752.5 197.0 C 753.4 203.9 750.4 210.7 751.5 217.6 C 752.4 220.4 754.4 222.8 755.6 225.5 C 756.7 228.2 758.9 230.2 761.3 231.8 C 761.4 232.6 761.5 233.5 761.7 234.3 C 756.5 235.2 752.3 238.3 748.0 241.0 C 742.1 244.1 735.6 246.2 729.0 247.0 C 724.0 247.0 719.1 246.0 714.4 244.6 C 710.3 243.5 707.9 239.8 705.0 237.0 C 701.8 233.9 699.1 230.0 698.4 225.5 C 696.3 224.4 693.9 223.4 692.9 221.1 C 690.0 215.8 686.9 210.2 687.6 204.0 C 687.5 200.7 689.7 197.6 688.9 194.3 C 686.1 193.5 685.6 197.2 685.1 199.1 C 683.0 207.2 686.1 215.6 690.9 222.1 C 693.3 224.8 692.6 229.1 695.5 231.5 C 699.5 235.2 703.0 239.4 706.4 243.6 C 711.5 249.5 719.8 250.1 727.0 249.8 C 733.0 250.2 738.5 247.8 744.0 246.2 C 748.1 247.1 751.8 249.6 756.1 248.3 C 758.5 250.8 761.3 252.9 763.0 255.9 C 764.9 262.8 766.0 269.9 768.9 276.5 C 769.8 275.5 770.7 274.4 771.6 273.3 C 772.1 275.3 772.6 277.2 773.2 279.1 C 767.3 283.9 765.3 292.1 758.9 296.4 C 751.2 299.0 743.1 303.7 734.9 300.3 C 723.3 298.2 714.2 290.3 704.1 284.9 C 699.7 282.1 694.6 280.8 689.9 278.5 C 683.2 280.5 676.2 280.3 669.4 281.7 C 661.9 283.4 654.2 284.5 646.9 287.0 C 632.6 291.8 618.7 297.7 603.9 300.7 C 606.4 292.6 609.9 284.6 611.2 276.2 C 614.3 262.1 614.8 247.6 614.5 233.3 C 612.1 218.7 610.1 203.7 603.7 190.2 C 601.5 183.3 597.2 177.3 593.2 171.3 C 597.8 169.9 602.5 169.9 607.1 169.1 C 619.3 167.2 631.5 164.8 643.3 161.2 C 659.0 156.3 674.3 150.4 689.1 143.2 C 692.3 146.4 697.5 145.2 700.1 141.8 C 701.1 142.8 702.1 143.9 703.2 144.9 C 704.4 144.2 705.6 143.5 706.7 142.6 C 706.7 141.1 706.4 139.6 706.2 138.1 C 709.9 135.7 713.6 133.4 717.6 131.4 C 722.2 129.0 726.3 125.6 731.3 124.2 C 737.0 122.5 742.9 120.2 748.9 121.5 C 751.0 119.1 753.0 116.5 755.1 114.1 Z" />
<path fill="#1e1f21" stroke="#1e1f21" stroke-width="0.09375" opacity="1.00" d=" M 887.0 122.0 C 897.7 120.4 908.6 121.2 919.3 122.5 C 924.6 123.3 929.4 126.0 934.7 126.5 C 942.4 127.4 949.9 130.3 956.0 135.1 C 961.8 138.3 966.6 143.0 971.5 147.5 C 980.0 155.4 988.1 164.0 993.6 174.3 C 995.1 177.0 995.8 180.9 993.2 183.2 C 990.9 185.2 992.1 188.4 991.8 191.0 C 992.1 193.4 989.6 195.2 987.3 194.8 C 986.1 190.8 990.4 187.4 988.6 183.5 C 986.6 177.1 982.5 171.7 979.2 165.9 C 976.3 160.8 971.3 157.6 966.7 154.2 C 961.7 150.5 956.3 147.0 950.5 144.6 C 948.9 143.8 947.4 145.2 945.9 145.5 C 928.6 142.9 910.8 145.2 894.0 149.9 C 883.9 152.7 876.7 160.5 868.0 165.8 C 867.7 165.0 867.3 164.2 866.9 163.4 C 874.0 160.0 879.3 153.9 886.4 150.5 C 896.2 146.0 907.0 144.7 917.4 142.6 C 924.3 141.9 931.1 141.8 938.0 141.9 C 939.7 141.7 941.3 141.0 943.0 140.7 C 947.0 140.7 950.8 142.3 954.6 143.4 C 947.8 133.8 936.0 128.8 924.4 128.5 C 922.6 124.9 918.3 125.7 915.0 125.3 C 911.4 125.0 907.8 126.0 904.2 126.3 C 904.8 125.1 905.5 124.0 906.2 122.8 C 902.0 122.7 897.7 122.6 893.5 123.3 C 886.7 124.1 879.6 124.3 873.3 127.2 C 868.4 129.3 864.7 133.3 861.1 137.1 C 858.9 139.3 856.9 141.7 855.5 144.5 C 862.7 139.7 867.2 130.2 876.5 129.0 C 874.1 133.4 868.7 134.8 865.5 138.4 C 861.7 142.3 857.5 146.0 854.8 150.8 C 867.6 141.0 882.5 134.3 898.1 130.2 C 901.8 129.9 906.3 126.7 909.4 129.9 C 909.3 130.3 909.0 131.2 908.9 131.6 C 903.4 131.2 898.1 132.4 892.9 133.9 C 878.8 138.4 864.8 144.6 854.1 155.1 C 852.4 157.1 849.8 157.9 847.3 158.2 C 847.6 155.1 845.9 151.8 848.1 149.1 C 852.9 142.6 858.1 136.4 863.8 130.8 C 869.6 124.3 878.7 122.6 887.0 122.0 Z" />
<path fill="#808080" stroke="#808080" stroke-width="0.09375" opacity="1.00" d=" M 701.2 126.1 C 703.3 125.4 703.6 128.6 701.7 129.0 C 699.6 129.8 699.3 126.5 701.2 126.1 Z" />
<path fill="#eaebed" stroke="#eaebed" stroke-width="0.09375" opacity="1.00" d=" M 949.2 135.2 C 949.8 135.8 949.8 135.8 949.2 135.2 Z" />
<path fill="#252628" stroke="#252628" stroke-width="0.09375" opacity="1.00" d=" M 906.8 138.9 C 914.5 138.2 922.0 135.5 929.8 136.3 C 931.6 136.5 932.4 138.3 933.5 139.5 C 923.4 137.5 913.4 140.4 903.3 141.2 C 892.7 143.6 881.4 145.8 873.0 153.0 C 870.2 155.1 867.9 157.7 865.8 160.5 C 863.7 160.6 863.5 157.9 865.0 156.9 C 870.1 151.6 876.2 146.9 883.2 144.4 C 890.9 142.0 898.7 139.7 906.8 138.9 Z" />
<path fill="#feffff" stroke="#feffff" stroke-width="0.09375" opacity="1.00" d=" M 953.3 139.1 C 953.9 139.8 953.9 139.8 953.3 139.1 Z" />
<path fill="#fbfcfd" stroke="#fbfcfd" stroke-width="0.09375" opacity="1.00" d=" M 954.1 140.1 C 957.3 140.5 959.0 143.4 960.9 145.7 C 959.4 145.4 958.0 145.2 956.5 145.1 C 955.6 143.4 954.8 141.7 954.1 140.1 Z" />
<path fill="#fdfdfe" stroke="#fdfdfe" stroke-width="0.09375" opacity="1.00" d=" M 960.4 140.9 C 964.7 143.7 968.3 147.4 972.1 150.9 C 978.2 156.9 984.1 163.2 988.4 170.6 C 990.0 173.5 993.7 177.0 991.0 180.2 C 989.7 177.1 989.4 173.6 987.3 170.8 C 984.7 167.1 981.6 163.7 978.7 160.3 C 974.9 155.4 968.3 153.5 964.7 148.4 C 963.8 145.6 962.4 143.0 960.4 140.9 Z" />
<path fill="#202021" stroke="#202021" stroke-width="0.09375" opacity="1.00" d=" M 898.1 151.1 C 899.1 150.4 900.4 148.5 901.8 149.8 C 906.1 152.6 911.4 154.0 915.1 157.9 C 919.7 162.6 925.3 166.3 929.4 171.5 C 932.8 175.8 937.0 179.4 940.2 183.8 C 942.1 186.5 944.1 189.2 946.5 191.5 C 950.2 194.9 953.0 200.3 951.1 205.3 C 947.4 204.3 948.0 199.8 945.7 197.3 C 943.8 195.2 942.5 192.5 941.1 190.0 C 938.1 185.7 934.5 181.9 931.0 178.0 C 927.3 173.4 923.2 169.0 918.5 165.4 C 914.6 161.9 910.6 158.3 905.7 156.2 C 902.9 154.9 899.2 154.5 898.1 151.1 Z" />
<path fill="#ffffff" stroke="#ffffff" stroke-width="0.09375" opacity="1.00" d=" M 465.9 160.8 C 479.4 154.3 494.9 150.8 509.8 153.9 C 520.2 156.7 530.6 159.4 540.7 163.2 C 545.2 164.3 545.5 169.7 548.4 172.6 C 551.9 176.1 554.3 180.6 556.2 185.1 C 563.2 202.8 567.6 221.9 567.3 241.0 C 567.5 246.3 567.7 251.8 566.0 256.9 C 565.3 260.1 562.7 262.3 561.4 265.1 C 561.1 268.5 562.0 271.9 561.1 275.2 C 560.2 276.0 559.1 276.6 558.0 277.0 C 549.7 280.3 541.5 283.6 533.4 287.2 C 531.9 287.5 531.2 288.8 530.6 290.0 C 535.5 289.8 539.9 287.5 544.3 285.4 C 548.6 283.4 553.1 282.2 557.6 280.6 C 557.1 283.2 558.0 285.5 559.9 287.2 C 558.5 290.4 558.1 293.9 557.4 297.3 C 555.6 298.2 553.9 299.1 552.4 300.4 C 542.3 308.3 528.5 309.7 519.1 318.8 C 523.2 305.8 528.8 293.5 532.2 280.3 C 532.4 278.9 534.0 278.6 535.1 278.1 C 542.2 275.6 549.5 273.5 556.9 272.0 C 558.8 271.7 561.6 270.2 559.9 268.0 C 556.1 268.1 552.7 270.1 549.1 271.1 C 544.2 273.0 539.1 274.1 534.0 275.2 C 536.1 266.5 539.4 258.3 541.9 249.8 C 543.1 245.7 542.8 241.3 542.7 237.1 C 541.6 237.2 540.4 237.4 539.3 237.5 C 540.3 249.5 534.6 260.4 531.9 271.8 C 531.1 275.4 528.3 278.2 528.1 282.0 C 527.1 290.8 522.4 298.4 519.6 306.7 C 516.6 314.3 514.3 322.2 510.5 329.4 C 507.5 335.0 505.9 341.2 502.8 346.7 C 499.1 353.1 496.6 360.0 493.6 366.7 C 491.8 370.7 489.1 374.2 487.4 378.2 C 485.4 383.3 482.0 387.6 479.3 392.3 C 474.5 400.0 471.5 408.7 466.1 416.0 C 460.2 421.5 456.0 429.7 447.5 431.5 C 446.1 430.1 444.7 428.7 443.4 427.3 L 442.8 426.7 C 434.4 426.7 426.0 425.2 417.7 423.4 C 415.1 423.1 412.5 423.6 409.9 423.6 C 409.7 422.5 409.5 421.5 409.3 420.4 C 404.1 418.9 399.4 416.1 394.0 415.1 C 388.5 413.7 382.7 414.9 377.1 414.2 C 370.5 412.5 363.7 413.6 357.0 413.2 C 344.0 414.3 333.1 406.0 323.0 399.0 C 312.8 392.5 304.0 384.1 295.5 375.5 C 287.6 367.8 282.0 358.3 275.5 349.5 C 269.3 342.1 261.0 336.5 252.1 332.9 C 243.4 329.1 234.1 327.1 225.0 324.4 C 228.9 317.2 233.8 310.4 239.5 304.5 C 246.3 298.9 253.5 293.3 262.1 290.7 C 274.2 293.9 286.4 297.1 298.7 299.4 C 303.1 300.3 307.5 301.5 311.7 303.3 C 322.0 307.6 333.6 308.0 343.4 313.6 C 353.2 319.3 363.5 324.2 373.8 329.1 C 382.3 334.1 390.0 340.5 399.0 344.9 C 402.0 346.5 404.8 348.5 407.5 350.7 C 408.7 349.6 410.8 348.9 411.0 347.0 C 410.2 344.9 408.2 343.3 408.2 341.0 C 407.0 324.2 408.5 307.4 410.4 290.7 C 410.6 284.5 410.5 278.2 412.0 272.1 C 414.8 261.4 415.9 250.3 418.5 239.6 C 423.1 227.4 424.5 214.1 430.3 202.3 C 432.9 197.7 435.5 193.0 438.7 188.8 C 443.4 183.9 446.1 177.6 450.3 172.4 C 454.7 167.6 460.3 164.1 465.9 160.8 Z" />
<path fill="#878787" stroke="#878787" stroke-width="0.09375" opacity="1.00" d=" M 567.1 160.3 C 570.4 160.5 565.5 163.3 567.1 160.3 Z" />
<path fill="#fdfdfe" stroke="#fdfdfe" stroke-width="0.09375" opacity="1.00" d=" M 551.0 166.9 C 556.3 170.2 559.0 176.1 561.7 181.5 C 564.2 188.6 568.5 195.1 569.6 202.6 C 570.5 207.4 569.9 212.2 570.6 217.0 C 571.1 221.3 572.2 225.6 572.3 230.0 C 572.3 239.5 575.0 248.8 574.1 258.3 C 573.6 260.3 572.9 262.3 572.3 264.3 C 572.0 263.1 571.8 262.0 571.2 260.9 C 570.2 261.4 569.2 261.9 568.2 262.5 C 569.4 254.7 570.1 246.8 569.0 239.0 C 568.6 219.8 564.4 200.6 557.2 182.8 C 555.2 177.5 551.9 172.6 551.0 166.9 Z" />
<path fill="#ffffff" stroke="#ffffff" stroke-width="0.09375" opacity="1.00" d=" M 557.6 166.5 C 564.9 168.1 571.4 172.5 579.0 172.7 C 583.0 172.6 586.0 175.8 588.3 178.7 C 595.3 186.6 596.8 197.5 599.9 207.3 C 602.0 213.3 601.7 219.7 602.1 226.0 C 602.5 233.2 600.6 240.3 600.6 247.5 C 600.6 255.3 598.9 263.0 596.9 270.5 C 594.4 281.0 591.2 293.8 580.2 298.3 C 577.2 299.0 577.6 303.0 575.0 304.0 C 570.6 305.9 565.7 305.3 561.0 305.7 C 565.6 301.1 570.2 295.6 570.5 288.8 C 571.2 281.8 575.0 274.4 572.3 267.4 C 578.5 263.9 576.5 255.5 576.1 249.7 C 574.4 234.9 573.5 220.0 572.5 205.1 C 572.0 197.1 568.0 190.1 565.3 182.7 C 563.1 177.1 560.1 171.9 557.6 166.5 Z" />
<path fill="#fdfdfe" stroke="#fdfdfe" stroke-width="0.09375" opacity="1.00" d=" M 588.0 171.7 C 592.6 176.0 596.6 181.2 598.9 187.2 C 600.9 192.2 603.5 196.9 605.1 202.0 C 607.9 210.9 608.6 220.2 611.1 229.1 C 611.8 243.5 611.1 258.0 608.3 272.2 C 606.3 279.0 604.8 286.0 601.1 292.1 C 599.5 294.9 596.6 296.8 593.9 298.5 C 594.2 293.6 595.5 288.8 597.1 284.2 C 597.8 280.5 598.1 276.8 599.1 273.1 C 600.4 267.1 602.3 261.2 602.8 255.1 C 603.1 240.1 606.8 225.1 603.6 210.3 C 601.6 201.9 599.4 193.5 596.4 185.4 C 594.4 180.4 590.5 176.5 588.0 171.7 Z" />
<path fill="#252426" stroke="#252426" stroke-width="0.09375" opacity="1.00" d=" M 973.0 173.7 C 974.2 174.2 975.4 174.7 976.2 175.8 C 977.1 179.4 977.9 183.2 976.8 186.8 C 976.2 186.7 975.2 186.4 974.7 186.2 C 975.3 181.9 972.9 178.0 973.0 173.7 Z" />
<path fill="#161719" stroke="#161719" stroke-width="0.09375" opacity="1.00" d=" M 557.2 182.8 C 564.4 200.6 568.6 219.8 569.0 239.0 C 570.1 246.8 569.4 254.7 568.2 262.5 C 569.2 261.9 570.2 261.4 571.2 260.9 C 571.8 262.0 572.0 263.1 572.3 264.3 C 572.9 262.3 573.6 260.3 574.1 258.3 C 574.9 255.5 575.5 252.6 576.1 249.7 C 576.5 255.5 578.5 263.9 572.3 267.4 C 575.0 274.4 571.2 281.8 570.5 288.8 C 567.0 287.9 563.5 287.4 559.9 287.2 C 558.0 285.5 557.1 283.2 557.6 280.6 C 553.1 282.2 548.6 283.4 544.3 285.4 C 539.9 287.5 535.5 289.8 530.6 290.0 C 531.2 288.8 531.9 287.5 533.4 287.2 C 541.5 283.6 549.7 280.3 558.0 277.0 C 559.1 276.6 560.2 276.0 561.1 275.2 C 562.0 271.9 561.1 268.5 561.4 265.1 C 562.7 262.3 565.3 260.1 566.0 256.9 C 567.7 251.8 567.5 246.3 567.3 241.0 C 567.6 221.9 563.2 202.8 556.2 185.1 C 556.4 184.5 556.9 183.4 557.2 182.8 Z" />
<path fill="#212120" stroke="#212120" stroke-width="0.09375" opacity="1.00" d=" M 990.9 196.9 C 992.1 194.5 993.6 192.2 996.1 191.0 C 995.4 195.4 998.6 198.8 998.9 203.1 C 999.4 207.3 996.8 210.9 995.7 214.8 C 993.8 220.2 989.1 223.7 986.1 228.4 C 987.8 228.3 989.4 228.2 991.1 228.2 C 991.3 228.9 991.6 230.3 991.7 231.0 C 989.5 233.4 987.9 236.4 985.6 238.6 C 979.7 242.2 975.8 248.2 970.5 252.6 C 962.9 258.3 954.6 263.7 945.1 266.0 C 939.4 267.5 933.8 269.4 928.0 270.3 C 925.6 268.9 923.6 267.0 921.8 264.9 C 919.8 264.8 917.8 264.6 915.7 264.5 C 915.5 263.7 915.4 263.0 915.2 262.3 C 911.9 261.0 908.6 259.5 905.0 259.4 C 902.4 259.3 899.6 259.1 897.3 257.7 C 894.3 256.0 890.5 254.9 889.2 251.3 L 889.0 250.9 C 888.0 250.3 886.9 249.7 885.9 249.1 C 887.8 248.0 890.0 248.8 892.1 249.1 C 897.9 250.3 903.8 250.6 909.7 251.2 C 909.7 249.9 909.6 248.5 909.5 247.2 C 922.9 247.6 936.3 245.8 949.5 243.5 C 962.1 241.1 973.5 234.5 983.1 226.1 C 985.9 223.2 988.7 220.1 990.5 216.4 C 991.4 213.2 992.5 210.0 994.0 207.0 C 993.3 206.9 992.0 206.8 991.3 206.7 C 991.1 203.5 989.2 200.0 990.9 196.9 Z" />
<path fill="#191a1c" stroke="#191a1c" stroke-width="0.09375" opacity="1.00" d=" M 960.1 194.3 C 961.2 194.2 962.3 194.2 963.5 194.2 C 966.5 200.2 969.8 206.8 968.5 213.8 C 967.3 218.2 965.7 223.5 960.8 225.0 C 959.2 226.1 957.2 223.0 958.7 221.8 C 960.3 220.3 962.5 219.1 962.8 216.7 C 963.6 212.7 965.8 208.4 963.9 204.3 C 963.2 200.7 959.7 198.1 960.1 194.3 Z" />
<path fill="#222224" stroke="#222224" stroke-width="0.09375" opacity="1.00" d=" M 833.8 200.3 C 832.1 198.0 834.4 194.9 837.0 195.2 C 844.6 194.9 852.1 196.3 859.5 197.4 C 859.6 198.1 859.8 199.3 859.9 200.0 C 851.9 199.9 843.9 196.0 836.0 198.7 C 838.1 201.5 840.8 203.7 844.0 205.1 C 845.9 206.2 848.8 206.6 849.3 209.2 C 843.5 207.8 837.0 205.5 833.8 200.3 Z" />
<path fill="#1c1c1e" stroke="#1c1c1e" stroke-width="0.09375" opacity="1.00" d=" M 974.0 198.7 C 974.9 197.8 975.9 196.8 977.0 196.0 C 980.7 199.3 982.6 204.3 986.8 207.2 C 988.9 209.0 987.5 212.2 985.7 213.7 C 982.3 218.0 976.4 219.4 971.2 218.9 C 971.0 218.4 970.5 217.5 970.3 217.1 C 971.7 215.1 972.2 212.8 972.7 210.5 C 973.7 210.5 974.6 210.4 975.6 210.3 C 976.7 211.4 977.8 212.4 978.9 213.5 C 980.2 213.0 981.5 212.5 982.8 212.0 C 981.7 206.6 977.6 202.6 974.0 198.7 Z" />
<path fill="#8c8c8a" stroke="#8c8c8a" stroke-width="0.09375" opacity="1.00" d=" M 994.2 198.3 C 995.9 198.9 994.9 201.8 993.7 202.5 C 992.1 201.9 992.6 198.7 994.2 198.3 Z" />
<path fill="#1b1c1e" stroke="#1b1c1e" stroke-width="0.09375" opacity="1.00" d=" M 972.0 201.5 C 972.7 201.2 974.2 200.7 974.9 200.4 C 976.2 202.0 977.6 203.4 978.9 205.0 C 978.2 206.6 976.6 206.8 975.1 207.1 C 973.9 205.4 972.3 203.7 972.0 201.5 Z" />
<path fill="#1a1b1d" stroke="#1a1b1d" stroke-width="0.09375" opacity="1.00" d=" M 959.3 202.9 C 959.8 203.1 960.8 203.6 961.3 203.8 C 962.0 207.4 961.9 211.2 961.8 214.8 C 960.8 216.4 959.4 217.6 958.1 218.9 C 957.5 218.6 956.4 217.8 955.8 217.5 C 956.3 215.6 957.7 214.3 958.9 212.7 C 959.3 209.5 957.7 206.1 959.3 202.9 Z" />
<path fill="#1b1c1d" stroke="#1b1c1d" stroke-width="0.09375" opacity="1.00" d=" M 950.2 213.9 C 950.7 213.7 951.7 213.3 952.2 213.1 C 954.4 217.5 954.4 223.2 952.9 227.9 C 949.8 233.0 944.1 235.8 938.6 237.4 C 930.1 238.8 921.5 238.9 913.0 238.9 C 905.5 239.1 898.0 236.3 890.7 238.6 C 886.0 238.7 881.0 237.8 876.8 240.4 C 885.1 242.1 893.5 242.4 902.0 242.3 C 906.7 242.2 911.4 241.1 916.2 241.2 C 915.8 243.3 913.5 243.2 911.8 243.5 C 904.9 244.1 898.1 245.3 891.2 245.6 C 884.5 245.6 877.5 245.5 871.4 242.4 C 870.4 243.0 869.5 243.6 868.6 244.2 C 867.8 242.9 867.0 241.5 866.2 240.1 C 867.5 238.8 868.8 237.3 870.0 235.8 C 870.9 236.6 871.8 237.4 872.6 238.1 C 871.5 236.7 870.8 235.0 870.1 233.4 C 868.7 234.7 867.4 236.2 865.7 237.1 C 864.5 235.2 863.9 233.1 864.2 230.9 C 865.8 230.7 867.4 230.6 869.0 230.6 C 866.3 230.0 863.7 229.0 861.2 227.8 C 858.1 225.8 854.5 227.3 851.2 227.6 C 846.9 228.2 843.9 231.5 840.0 233.2 C 840.7 228.6 845.3 226.3 849.1 224.8 C 852.0 224.2 855.0 224.1 858.0 223.7 C 861.6 223.2 864.9 224.9 868.1 226.1 C 877.8 226.9 886.8 230.6 896.0 233.2 C 904.1 232.7 911.8 235.7 919.8 234.8 C 926.1 233.7 932.7 235.2 938.8 233.0 C 942.3 231.6 946.0 230.3 948.5 227.4 C 951.1 223.4 950.1 218.4 950.2 213.9 Z" />
<path fill="#909090" stroke="#909090" stroke-width="0.09375" opacity="1.00" d=" M 924.2 216.3 C 924.7 216.8 924.7 216.8 924.2 216.3 Z" />
<path fill="#1d1e20" stroke="#1d1e20" stroke-width="0.09375" opacity="1.00" d=" M 976.6 219.8 C 980.9 221.7 978.6 227.0 977.1 230.1 C 976.4 231.8 974.7 231.7 973.2 231.3 C 975.1 227.7 975.9 223.8 976.6 219.8 Z" />
<path fill="#1c1c1b" stroke="#1c1c1b" stroke-width="0.09375" opacity="1.00" d=" M 611.1 229.1 C 612.2 230.6 613.3 231.9 614.5 233.3 C 614.8 247.6 614.3 262.1 611.2 276.2 C 609.9 284.6 606.4 292.6 603.9 300.7 C 618.7 297.7 632.6 291.8 646.9 287.0 C 654.2 284.5 661.9 283.4 669.4 281.7 C 676.2 280.3 683.2 280.5 689.9 278.5 C 694.6 280.8 699.7 282.1 704.1 284.9 C 714.2 290.3 723.3 298.2 734.9 300.3 C 743.1 303.7 751.2 299.0 758.9 296.4 C 760.7 297.1 762.2 298.1 763.7 299.1 C 764.2 298.5 764.6 298.0 765.1 297.4 C 767.8 297.8 770.6 298.2 773.3 298.7 C 766.7 306.1 758.9 312.6 749.8 316.8 C 743.7 319.7 736.7 319.0 730.3 317.7 C 720.9 314.7 712.0 310.6 703.2 306.2 C 703.2 305.0 703.1 303.9 703.0 302.7 C 701.2 302.4 699.2 302.4 697.6 301.4 C 695.8 299.4 695.4 296.6 694.6 294.2 C 691.3 294.5 688.0 294.8 684.8 295.8 C 678.8 298.3 672.2 299.0 665.9 300.4 C 657.0 303.5 647.7 305.7 638.9 309.2 C 636.6 310.0 635.1 311.9 633.2 313.5 C 626.7 315.6 619.9 316.7 613.6 319.3 C 607.1 320.3 600.5 321.0 594.0 320.7 C 589.0 320.2 584.2 322.0 579.2 321.5 C 576.2 321.5 575.0 324.4 573.5 326.5 C 570.6 326.9 567.7 327.2 565.1 328.2 C 558.4 331.2 552.0 334.9 545.7 338.7 C 536.7 344.5 529.5 352.6 521.5 359.5 C 518.3 362.7 517.9 367.6 515.2 371.1 C 508.1 381.2 502.1 392.1 495.2 402.2 C 491.5 408.9 488.2 415.7 484.3 422.3 C 479.1 429.2 474.2 436.8 467.3 442.3 C 464.5 444.4 462.3 447.5 459.0 448.9 C 455.3 448.5 451.5 448.6 447.8 449.4 C 443.6 450.3 440.2 447.1 436.2 446.4 C 435.0 446.8 433.9 447.6 432.7 448.3 C 432.4 447.8 432.0 447.3 431.7 446.8 C 430.8 447.3 429.9 447.9 429.0 448.4 C 421.5 447.2 414.2 444.3 406.5 444.4 C 403.5 444.6 400.6 443.8 397.9 442.7 C 393.3 441.8 388.6 442.8 383.9 442.3 C 376.8 441.8 370.1 439.4 363.2 437.7 C 355.3 436.3 346.5 436.8 339.8 441.7 C 339.0 442.2 338.2 442.6 337.4 443.1 C 334.4 441.8 331.3 441.1 328.0 441.2 C 329.4 439.6 330.7 437.9 332.0 436.2 C 331.1 435.6 330.3 435.0 329.4 434.4 C 330.2 433.2 331.0 432.0 331.9 430.9 C 337.0 425.6 345.6 425.4 350.1 419.2 C 354.8 420.4 359.4 417.8 363.8 416.2 C 358.1 415.1 352.3 416.5 346.8 415.0 C 338.5 412.5 330.9 408.2 324.0 403.0 C 309.9 393.5 296.5 382.6 285.7 369.3 C 281.6 363.5 277.0 358.0 273.0 352.1 C 270.0 347.7 265.8 344.4 261.4 341.6 C 258.2 339.7 254.7 338.6 251.6 336.7 C 251.7 335.7 252.0 333.8 252.1 332.9 C 261.0 336.5 269.3 342.1 275.5 349.5 C 282.0 358.3 287.6 367.8 295.5 375.5 C 304.0 384.1 312.8 392.5 323.0 399.0 C 333.1 406.0 344.0 414.3 357.0 413.2 C 363.7 413.6 370.5 412.5 377.1 414.2 C 382.7 414.9 388.5 413.7 394.0 415.1 C 399.4 416.1 404.1 418.9 409.3 420.4 C 409.5 421.5 409.7 422.5 409.9 423.6 C 412.5 423.6 415.1 423.1 417.7 423.4 C 426.0 425.2 434.4 426.7 442.8 426.7 L 443.4 427.3 C 442.4 428.8 441.4 430.3 440.3 431.7 C 441.7 431.6 443.2 430.8 444.6 431.3 C 446.9 433.4 448.8 435.8 450.9 438.1 C 453.2 436.6 455.4 434.9 456.4 432.2 C 453.8 433.5 451.0 435.2 447.9 434.5 C 447.8 433.8 447.6 432.3 447.5 431.5 C 456.0 429.7 460.2 421.5 466.1 416.0 C 471.5 408.7 474.5 400.0 479.3 392.3 C 482.0 387.6 485.4 383.3 487.4 378.2 C 489.1 374.2 491.8 370.7 493.6 366.7 C 496.6 360.0 499.1 353.1 502.8 346.7 C 505.9 341.2 507.5 335.0 510.5 329.4 C 514.3 322.2 516.6 314.3 519.6 306.7 C 522.4 298.4 527.1 290.8 528.1 282.0 C 528.3 278.2 531.1 275.4 531.9 271.8 C 534.6 260.4 540.3 249.5 539.3 237.5 C 540.4 237.4 541.6 237.2 542.7 237.1 C 542.8 241.3 543.1 245.7 541.9 249.8 C 539.4 258.3 536.1 266.5 534.0 275.2 C 539.1 274.1 544.2 273.0 549.1 271.1 C 552.7 270.1 556.1 268.1 559.9 268.0 C 561.6 270.2 558.8 271.7 556.9 272.0 C 549.5 273.5 542.2 275.6 535.1 278.1 C 534.0 278.6 532.4 278.9 532.2 280.3 C 528.8 293.5 523.2 305.8 519.1 318.8 C 528.5 309.7 542.3 308.3 552.4 300.4 C 553.9 299.1 555.6 298.2 557.4 297.3 C 558.1 293.9 558.5 290.4 559.9 287.2 C 563.5 287.4 567.0 287.9 570.5 288.8 C 570.2 295.6 565.6 301.1 561.0 305.7 C 565.7 305.3 570.6 305.9 575.0 304.0 C 577.6 303.0 577.2 299.0 580.2 298.3 C 591.2 293.8 594.4 281.0 596.9 270.5 C 597.5 270.5 598.5 270.6 599.1 270.6 C 599.1 271.2 599.1 272.5 599.1 273.1 C 598.1 276.8 597.8 280.5 597.1 284.2 C 595.5 288.8 594.2 293.6 593.9 298.5 C 596.6 296.8 599.5 294.9 601.1 292.1 C 604.8 286.0 606.3 279.0 608.3 272.2 C 611.1 258.0 611.8 243.5 611.1 229.1 Z" />
<path fill="#fcfdff" stroke="#fcfdff" stroke-width="0.09375" opacity="1.00" d=" M 877.3 231.7 C 880.8 233.1 884.4 234.6 888.0 235.8 C 883.9 235.6 880.1 234.5 876.2 233.6 C 876.5 233.1 877.0 232.2 877.3 231.7 Z" />
<path fill="#525451" stroke="#525451" stroke-width="0.09375" opacity="1.00" d=" M 761.7 236.0 C 762.4 235.6 763.8 234.8 764.4 234.3 C 765.9 236.5 764.3 238.9 762.1 239.5 C 762.0 238.6 761.8 236.9 761.7 236.0 Z" />
<path fill="#606061" stroke="#606061" stroke-width="0.09375" opacity="1.00" d=" M 970.3 239.1 C 971.7 237.8 973.5 239.9 971.5 240.7 C 970.1 242.0 968.3 239.9 970.3 239.1 Z" />
<path fill="#3b3b39" stroke="#3b3b39" stroke-width="0.09375" opacity="1.00" d=" M 871.4 242.4 C 877.5 245.5 884.5 245.6 891.2 245.6 C 887.3 246.0 883.3 245.8 879.4 245.9 C 881.7 249.2 885.7 250.2 889.2 251.3 C 890.5 254.9 894.3 256.0 897.3 257.7 C 899.6 259.1 902.4 259.3 905.0 259.4 C 908.6 259.5 911.9 261.0 915.2 262.3 C 915.4 263.0 915.5 263.7 915.7 264.5 C 917.8 264.6 919.8 264.8 921.8 264.9 C 923.6 267.0 925.6 268.9 928.0 270.3 C 924.3 270.9 920.5 271.2 916.9 270.0 C 913.2 268.7 909.2 269.7 905.5 268.4 C 899.3 265.3 893.5 261.7 887.5 258.3 C 884.6 256.4 881.6 254.5 879.1 252.0 C 877.6 249.8 875.9 247.7 874.1 245.8 C 873.5 246.7 872.9 247.5 872.3 248.4 C 871.0 247.1 869.7 245.7 868.6 244.2 C 869.5 243.6 870.4 243.0 871.4 242.4 Z" />
<path fill="#fdfdfd" stroke="#fdfdfd" stroke-width="0.09375" opacity="1.00" d=" M 948.5 246.4 C 953.1 245.7 957.5 244.5 962.1 244.3 C 945.7 251.2 927.4 251.6 909.9 251.0 C 911.4 248.6 914.7 250.0 917.1 249.6 C 927.6 248.7 938.1 247.9 948.5 246.4 Z" />
<path fill="#777777" stroke="#777777" stroke-width="0.09375" opacity="1.00" d=" M 872.3 248.4 C 872.9 247.5 873.5 246.7 874.1 245.8 C 875.9 247.7 877.6 249.8 879.1 252.0 C 877.2 251.4 875.7 250.1 874.4 248.6 C 873.5 249.0 872.5 249.3 871.5 249.7 C 871.7 249.4 872.1 248.7 872.3 248.4 Z" />
<path fill="#ffffff" stroke="#ffffff" stroke-width="0.09375" opacity="1.00" d=" M 836.1 248.3 C 838.4 248.8 840.7 248.5 843.0 248.7 C 848.5 249.8 853.6 252.6 858.3 255.7 C 863.4 259.0 869.1 261.3 874.0 265.0 C 878.6 268.0 883.9 270.0 887.8 274.0 C 881.8 275.4 876.0 272.5 870.0 273.3 C 861.9 273.8 853.8 272.6 845.7 273.8 C 839.7 274.3 833.5 276.5 827.6 274.2 C 828.2 272.5 829.1 270.9 829.6 269.1 C 828.5 264.3 827.6 259.3 828.6 254.4 C 830.7 252.0 833.6 250.3 836.1 248.3 Z" />
<path fill="#666666" stroke="#666666" stroke-width="0.09375" opacity="1.00" d=" M 382.2 249.2 C 383.6 248.7 384.0 249.1 383.5 250.6 C 382.1 251.1 381.7 250.6 382.2 249.2 Z" />
<path fill="#8c8c8a" stroke="#8c8c8a" stroke-width="0.09375" opacity="1.00" d=" M 897.6 254.8 C 898.9 254.0 900.3 253.5 901.9 253.8 C 910.0 254.6 918.1 254.6 926.2 255.7 C 924.8 255.7 923.5 255.8 922.2 255.8 C 914.7 256.2 907.3 255.4 899.8 255.0 C 899.3 255.0 898.1 254.9 897.6 254.8 Z" />
<path fill="#3e3e3c" stroke="#3e3e3c" stroke-width="0.09375" opacity="1.00" d=" M 899.8 255.0 C 907.3 255.4 914.7 256.2 922.2 255.8 C 921.5 257.1 920.8 258.3 920.2 259.6 C 916.9 258.6 913.4 258.9 910.0 258.2 C 906.6 257.3 903.2 256.1 899.8 255.0 Z" />
<path fill="#1c1c1c" stroke="#1c1c1c" stroke-width="0.09375" opacity="1.00" d=" M 576.4 275.6 C 576.0 271.4 578.5 266.8 582.9 265.9 C 584.7 269.0 585.9 273.8 582.0 276.0 C 580.5 278.4 577.7 277.9 576.4 275.6 Z" />
<path fill="#fdfefe" stroke="#fdfefe" stroke-width="0.09375" opacity="1.00" d=" M 565.1 267.8 C 566.7 267.8 568.4 267.7 570.0 267.7 C 569.6 271.9 567.6 275.6 564.8 278.6 C 564.6 276.3 565.8 274.2 566.4 272.0 C 566.3 270.5 565.5 269.2 565.1 267.8 Z" />
<path fill="#ffffff" stroke="#ffffff" stroke-width="0.09375" opacity="1.00" d=" M 399.0 276.9 C 402.0 274.7 405.2 272.8 408.6 271.1 C 408.1 276.4 407.3 281.6 407.3 286.9 C 407.4 298.3 404.8 309.6 405.4 321.0 C 405.0 327.1 406.4 333.2 406.2 339.3 C 405.4 339.2 403.8 339.1 403.0 339.0 C 402.7 340.4 402.4 341.9 402.1 343.3 C 393.3 338.6 385.2 332.6 376.6 327.5 C 367.0 322.7 357.3 318.1 347.8 313.0 C 352.0 309.3 356.0 305.3 361.0 302.7 C 358.9 307.0 353.1 308.6 352.9 313.8 C 354.4 313.9 355.9 313.9 357.4 313.8 C 358.3 312.0 359.1 310.0 360.6 308.5 C 367.2 301.2 374.9 294.8 382.2 288.2 C 387.6 284.2 393.4 280.7 399.0 276.9 Z" />
<path fill="#888886" stroke="#888886" stroke-width="0.09375" opacity="1.00" d=" M 566.1 285.1 C 566.7 282.6 567.4 280.0 569.7 278.6 C 569.2 281.1 568.2 283.5 566.1 285.1 Z" />
<path fill="#fcfdff" stroke="#fcfdff" stroke-width="0.09375" opacity="1.00" d=" M 772.5 285.1 C 775.4 283.5 772.6 288.4 772.5 285.1 Z" />
<path fill="#fbfcfd" stroke="#fbfcfd" stroke-width="0.09375" opacity="1.00" d=" M 645.0 291.1 C 651.4 288.9 658.0 287.1 664.7 286.4 C 651.2 289.6 638.1 294.3 625.0 298.6 C 631.4 295.5 638.5 294.2 645.0 291.1 Z" />
<path fill="#fcfdfe" stroke="#fcfdfe" stroke-width="0.09375" opacity="1.00" d=" M 243.8 294.8 C 248.3 291.7 253.2 288.8 258.7 287.8 C 253.9 291.8 248.1 294.3 243.3 298.3 C 238.8 301.8 234.6 305.7 231.3 310.3 C 229.1 312.8 227.7 316.1 224.6 317.7 C 224.9 315.9 225.0 313.8 226.3 312.3 C 232.2 306.5 237.5 300.1 243.8 294.8 Z" />
<path fill="#fdfdfd" stroke="#fdfdfd" stroke-width="0.09375" opacity="1.00" d=" M 561.7 294.8 C 563.6 293.5 565.4 292.0 566.8 290.2 C 566.2 295.2 563.5 299.6 559.2 302.1 C 559.8 299.6 560.3 297.0 561.7 294.8 Z" />
<path fill="#f5f5f6" stroke="#f5f5f6" stroke-width="0.09375" opacity="1.00" d=" M 167.6 300.1 C 171.0 295.6 176.8 291.9 182.6 292.9 C 178.9 297.3 172.7 298.0 167.6 300.1 Z" />
<path fill="#393836" stroke="#393836" stroke-width="0.09375" opacity="1.00" d=" M 684.8 295.8 C 688.0 294.8 691.3 294.5 694.6 294.2 C 695.4 296.6 695.8 299.4 697.6 301.4 C 699.2 302.4 701.2 302.4 703.0 302.7 C 703.1 303.9 703.2 305.0 703.2 306.2 C 700.8 305.5 697.6 305.3 696.6 302.5 C 694.5 298.0 689.4 296.2 684.8 295.8 Z" />
<path fill="#ffffff" stroke="#ffffff" stroke-width="0.09375" opacity="1.00" d=" M 68.4 309.5 C 71.6 303.1 77.5 298.9 83.1 294.8 C 90.6 295.1 96.0 301.2 101.9 305.0 C 105.2 308.0 110.2 303.0 113.2 306.1 C 112.4 309.6 109.0 311.3 106.8 313.8 C 104.4 316.4 100.7 318.8 101.2 322.9 C 102.0 326.3 101.3 330.1 102.6 333.5 C 104.3 336.0 107.1 337.5 109.3 339.6 C 110.9 342.7 110.1 346.3 110.6 349.6 C 110.9 352.9 112.9 355.8 112.2 359.2 C 109.0 358.8 106.0 359.7 103.3 361.3 C 103.1 363.5 105.5 364.5 106.8 365.9 C 105.6 366.9 104.5 367.9 103.5 368.9 C 103.9 368.0 104.4 367.1 104.9 366.1 C 102.6 362.7 98.4 362.0 94.7 361.1 C 96.1 359.4 97.4 357.5 96.1 355.4 C 90.1 358.4 84.6 362.3 79.6 366.7 C 75.7 368.1 71.9 369.6 68.7 372.3 C 70.8 376.2 65.8 377.7 63.2 379.3 C 58.7 382.3 53.8 386.1 48.1 385.0 C 42.3 382.7 35.0 381.0 32.1 374.7 C 29.8 365.4 32.8 355.6 37.7 347.7 C 40.6 343.0 43.1 337.9 46.7 333.7 C 48.4 332.2 50.7 331.8 52.7 330.9 C 50.0 333.8 47.3 336.8 45.1 340.1 C 41.2 346.1 36.3 351.5 33.6 358.1 C 33.2 359.6 32.5 363.0 34.9 362.9 C 36.5 363.5 36.6 361.2 37.2 360.3 C 38.9 355.9 41.7 352.2 44.2 348.3 C 46.8 344.3 49.3 340.1 52.6 336.5 C 60.3 329.1 62.3 318.0 68.4 309.5 Z" />
<path fill="#fbfcfd" stroke="#fbfcfd" stroke-width="0.09375" opacity="1.00" d=" M 582.0 303.0 C 585.8 301.4 588.3 298.1 590.9 295.1 C 590.3 297.0 590.4 299.4 589.0 300.8 C 586.7 301.5 584.3 302.1 582.0 303.0 Z" />
<path fill="#fbfcfd" stroke="#fbfcfd" stroke-width="0.09375" opacity="1.00" d=" M 58.2 313.3 C 63.0 307.4 67.6 301.3 73.9 296.8 C 69.8 300.9 66.1 305.3 63.4 310.4 C 60.8 314.3 59.4 319.0 56.1 322.4 C 56.3 319.3 56.2 315.9 58.2 313.3 Z" />
<path fill="#fbfcfd" stroke="#fbfcfd" stroke-width="0.09375" opacity="1.00" d=" M 601.8 304.8 C 604.0 303.7 606.6 303.4 609.2 303.3 C 606.9 304.5 604.3 305.1 601.8 304.8 Z" />
<path fill="#fbfcfd" stroke="#fbfcfd" stroke-width="0.09375" opacity="1.00" d=" M 549.5 305.3 C 550.2 304.5 552.8 304.8 551.5 306.2 C 550.5 307.1 549.3 307.5 548.1 307.3 C 546.5 306.5 548.7 305.4 549.5 305.3 Z" />
<path fill="#fcfdfe" stroke="#fcfdfe" stroke-width="0.09375" opacity="1.00" d=" M 128.8 312.8 C 131.0 309.5 134.8 307.7 138.0 305.5 C 141.4 305.4 144.6 306.0 147.9 306.3 C 143.1 310.0 139.5 315.0 134.9 319.0 C 130.3 323.0 127.9 328.8 125.1 334.0 C 122.3 339.2 121.2 345.2 121.2 351.0 C 121.0 355.9 120.4 361.1 117.0 364.9 C 114.0 367.9 110.9 370.8 108.1 374.0 C 106.1 376.1 105.8 379.1 104.9 381.7 C 103.1 380.2 103.3 377.7 103.6 375.6 C 105.6 371.2 109.7 368.3 113.5 365.4 C 116.5 361.8 117.9 357.0 118.0 352.3 C 117.0 351.2 115.5 350.3 115.2 348.7 C 113.5 341.3 115.1 333.5 119.0 327.1 C 122.1 322.2 125.5 317.5 128.8 312.8 Z" />
<path fill="#ffffff" stroke="#ffffff" stroke-width="0.09375" opacity="1.00" d=" M 138.9 319.9 C 144.1 315.7 147.8 308.9 155.0 308.1 C 157.9 309.0 160.6 310.5 163.6 311.3 C 169.3 312.8 174.5 315.9 180.4 316.5 C 194.2 319.6 208.0 322.9 221.5 327.3 C 225.7 328.2 229.6 330.3 234.0 330.8 C 240.1 331.9 245.8 334.4 251.6 336.7 C 254.7 338.6 258.2 339.7 261.4 341.6 C 265.8 344.4 270.0 347.7 273.0 352.1 C 277.0 358.0 281.6 363.5 285.7 369.3 C 296.5 382.6 309.9 393.5 324.0 403.0 C 330.9 408.2 338.5 412.5 346.8 415.0 C 352.3 416.5 358.1 415.1 363.8 416.2 C 359.4 417.8 354.8 420.4 350.1 419.2 C 345.6 425.4 337.0 425.6 331.9 430.9 C 324.9 434.4 316.7 433.9 309.4 431.9 C 300.9 430.2 292.1 429.8 283.8 427.4 C 279.1 426.1 274.3 425.4 269.6 424.5 C 259.7 421.8 249.8 419.4 239.7 417.5 C 209.0 413.3 180.4 400.1 149.9 395.3 C 139.2 393.0 128.7 390.3 117.8 389.4 C 115.1 389.0 112.0 388.8 109.9 386.9 C 109.3 384.1 108.3 380.8 110.0 378.2 C 112.9 373.1 118.1 370.0 121.5 365.5 C 124.4 362.0 124.4 357.1 124.8 352.8 C 124.7 345.4 126.4 337.8 130.4 331.5 C 132.7 327.3 135.1 322.9 138.9 319.9 Z" />
<path fill="#fbfcfd" stroke="#fbfcfd" stroke-width="0.09375" opacity="1.00" d=" M 110.4 315.3 C 112.9 313.3 115.1 310.8 117.7 308.9 C 117.5 311.2 116.7 313.4 114.9 314.9 C 111.7 317.7 108.5 320.8 104.4 322.4 C 105.3 319.2 108.0 317.3 110.4 315.3 Z" />
<path fill="#ffffff" stroke="#ffffff" stroke-width="0.09375" opacity="1.00" d=" M 913.5 312.4 C 920.6 311.1 927.7 309.2 935.0 308.8 C 937.2 308.5 938.9 310.2 940.7 311.3 C 947.7 316.0 955.8 318.6 963.2 322.6 C 971.9 326.1 980.1 330.8 987.6 336.4 C 991.0 338.8 995.4 339.0 999.0 341.0 C 1006.1 346.3 1014.5 349.8 1020.4 356.6 C 1021.0 357.6 1022.4 358.5 1022.2 359.9 C 1021.5 360.7 1020.8 361.5 1020.1 362.3 C 1020.4 363.5 1020.8 364.7 1021.2 365.9 C 1021.8 364.8 1022.4 363.7 1023.1 362.6 C 1025.7 362.3 1028.1 363.3 1030.5 364.4 C 1034.1 365.2 1037.9 366.3 1041.6 365.7 C 1047.6 364.5 1054.1 365.4 1059.4 368.4 C 1061.3 369.5 1063.5 369.8 1065.6 370.3 C 1067.6 371.8 1069.5 373.4 1071.9 374.3 C 1069.3 375.8 1068.4 378.4 1067.9 381.1 C 1065.1 384.5 1060.5 386.8 1056.1 386.0 C 1054.0 385.7 1052.0 385.2 1050.0 385.1 C 1050.5 386.1 1050.6 387.8 1052.2 387.8 C 1055.6 388.8 1059.3 388.9 1062.9 388.1 C 1066.5 392.8 1071.7 396.1 1077.3 398.0 C 1077.3 399.7 1077.4 401.3 1077.2 402.9 C 1076.0 403.9 1074.4 404.2 1073.1 404.8 C 1073.4 406.1 1073.7 407.4 1074.0 408.7 C 1076.3 408.2 1078.6 407.9 1080.9 407.6 C 1080.1 403.6 1079.9 399.6 1080.8 395.6 C 1076.8 395.0 1072.9 393.6 1069.9 390.8 C 1069.8 390.2 1069.7 389.1 1069.6 388.6 C 1073.5 388.6 1077.1 390.0 1080.9 390.6 C 1081.5 389.7 1082.2 388.8 1082.9 388.0 C 1082.8 388.7 1082.7 390.0 1082.6 390.7 C 1087.3 394.6 1084.0 401.2 1086.6 406.1 C 1083.9 409.5 1080.4 412.6 1075.7 412.7 C 1069.8 412.1 1064.4 409.2 1058.8 407.2 C 1049.1 403.2 1043.4 393.9 1035.0 388.0 C 1030.2 384.5 1026.3 379.9 1021.4 376.7 C 1015.1 375.2 1010.4 370.0 1003.9 369.3 C 997.4 368.7 991.0 366.9 984.6 365.6 C 970.1 363.2 958.4 353.7 944.6 349.5 C 937.2 345.8 929.0 342.8 923.6 336.4 C 917.4 336.2 911.1 335.3 905.5 332.5 C 903.1 328.7 901.0 323.1 904.2 319.2 C 906.8 316.5 909.4 312.9 913.5 312.4 Z" />
<path fill="#fbfdfc" stroke="#fbfdfc" stroke-width="0.09375" opacity="1.00" d=" M 107.2 325.3 C 112.7 320.7 119.8 316.9 122.0 309.7 C 123.4 309.9 124.8 310.1 126.2 310.3 C 121.7 319.1 114.4 326.4 111.3 335.9 C 108.7 333.9 107.6 330.6 104.9 328.8 C 105.5 327.5 105.9 326.0 107.2 325.3 Z" />
<path fill="#fcfdff" stroke="#fcfdff" stroke-width="0.09375" opacity="1.00" d=" M 983.5 314.8 C 986.9 318.7 985.9 325.5 981.7 328.4 C 982.4 326.8 983.6 325.5 984.7 324.1 C 983.8 321.0 983.3 317.9 983.5 314.8 Z" />
<path fill="#474746" stroke="#474746" stroke-width="0.09375" opacity="1.00" d=" M 573.5 326.5 C 575.0 324.4 576.2 321.5 579.2 321.5 C 580.1 324.9 576.9 327.2 573.9 327.8 C 571.0 328.2 568.0 328.2 565.1 328.2 C 567.7 327.2 570.6 326.9 573.5 326.5 Z" />
<path fill="#5c5c5b" stroke="#5c5c5b" stroke-width="0.09375" opacity="1.00" d=" M 850.8 326.0 C 852.6 323.5 855.7 324.1 858.3 324.2 C 856.1 325.7 853.4 326.2 850.8 326.0 Z" />
<path fill="#4f4f4f" stroke="#4f4f4f" stroke-width="0.09375" opacity="1.00" d=" M 832.7 326.8 C 834.5 323.5 839.3 325.5 842.3 325.3 C 839.5 327.3 836.0 327.0 832.7 326.8 Z" />
<path fill="#8c8c8a" stroke="#8c8c8a" stroke-width="0.09375" opacity="1.00" d=" M 512.2 335.0 C 513.4 331.7 514.1 327.9 517.0 325.7 C 516.2 329.1 514.7 332.4 512.2 335.0 Z" />
<path fill="#fbfdfc" stroke="#fbfdfc" stroke-width="0.09375" opacity="1.00" d=" M 872.5 330.6 C 873.7 330.1 875.9 329.7 876.4 331.3 C 875.5 333.1 872.8 332.3 872.5 330.6 Z" />
<path fill="#545453" stroke="#545453" stroke-width="0.09375" opacity="1.00" d=" M 870.3 331.3 C 870.9 331.1 872.0 330.8 872.5 330.6 C 872.8 332.3 875.5 333.1 876.4 331.3 C 876.5 331.7 876.9 332.4 877.1 332.8 C 871.3 334.0 865.5 335.2 859.6 334.5 C 863.5 333.1 867.6 332.7 871.7 332.9 C 871.2 332.4 870.8 331.8 870.3 331.3 Z" />
<path fill="#403f3e" stroke="#403f3e" stroke-width="0.09375" opacity="1.00" d=" M 794.4 334.6 C 800.8 332.5 807.5 333.8 814.0 334.0 C 816.8 334.1 818.8 336.1 820.9 337.6 C 821.6 336.8 822.3 336.0 823.0 335.2 C 827.1 336.8 831.2 334.9 835.4 335.0 C 837.9 335.8 839.9 337.7 842.0 339.3 C 836.1 341.7 830.0 338.0 824.0 339.0 C 820.2 339.5 816.3 339.9 812.5 339.4 C 808.2 338.7 803.8 339.2 799.5 338.6 C 797.7 337.4 796.1 336.0 794.4 334.6 Z" />
<path fill="#9d9d9f" stroke="#9d9d9f" stroke-width="0.09375" opacity="1.00" d=" M 404.4 344.2 C 407.4 342.6 404.5 347.5 404.4 344.2 Z" />
<path fill="#4b4b4b" stroke="#4b4b4b" stroke-width="0.09375" opacity="1.00" d=" M 311.2 363.2 C 312.8 362.6 313.4 363.2 312.9 364.8 C 311.2 365.3 310.7 364.8 311.2 363.2 Z" />
<path fill="#252628" stroke="#252628" stroke-width="0.09375" opacity="1.00" d=" M 141.8 364.0 C 146.9 363.1 151.3 366.2 155.6 368.5 C 165.3 374.0 176.1 377.4 185.3 383.7 C 198.7 393.0 213.6 400.1 229.1 405.0 C 231.5 405.9 234.2 406.4 236.3 408.0 C 229.7 407.2 223.7 404.4 217.4 402.5 C 207.7 399.1 198.6 394.4 189.8 389.1 C 183.4 385.0 177.2 380.5 170.1 377.8 C 160.3 373.9 151.1 368.9 141.8 364.0 Z" />
<path fill="#252426" stroke="#252426" stroke-width="0.09375" opacity="1.00" d=" M 313.9 365.8 C 318.6 367.5 322.5 370.8 326.9 373.1 C 328.6 373.9 329.8 375.3 330.2 377.1 C 324.4 374.0 317.8 371.5 313.9 365.8 Z" />
<path fill="#393937" stroke="#393937" stroke-width="0.09375" opacity="1.00" d=" M 988.6 376.0 C 988.8 373.6 991.1 372.3 992.7 370.9 C 995.5 372.3 998.7 372.1 1001.7 372.2 C 1003.5 373.1 1003.6 375.3 1004.3 377.0 C 1002.0 376.9 999.8 376.8 997.6 376.5 C 996.7 375.8 995.8 375.0 994.9 374.3 C 992.7 374.9 990.2 379.1 988.6 376.0 Z" />
<path fill="#fcfdff" stroke="#fcfdff" stroke-width="0.09375" opacity="1.00" d=" M 1092.0 374.7 C 1095.4 378.2 1098.2 382.2 1101.9 385.3 C 1099.7 391.2 1098.9 397.6 1095.3 402.9 C 1096.2 400.2 1097.1 397.5 1098.6 395.0 C 1096.8 392.7 1097.6 390.0 1097.7 387.4 C 1095.2 383.4 1093.2 379.2 1092.0 374.7 Z" />
<path fill="#3e3e3c" stroke="#3e3e3c" stroke-width="0.09375" opacity="1.00" d=" M 1008.1 378.8 C 1009.0 377.8 1010.0 376.7 1011.0 375.7 C 1019.5 378.3 1026.0 384.6 1032.0 390.8 C 1030.5 392.6 1028.9 394.4 1027.4 396.3 C 1027.1 396.7 1026.6 397.3 1026.4 397.6 C 1019.5 395.5 1013.4 391.6 1007.0 388.4 C 1010.3 388.3 1012.4 385.8 1013.9 383.1 C 1012.1 381.5 1010.2 380.0 1008.1 378.8 Z" />
<path fill="#fcfdfd" stroke="#fcfdfd" stroke-width="0.09375" opacity="1.00" d=" M 1073.7 375.6 C 1079.0 378.6 1085.4 378.0 1090.4 381.5 C 1094.1 383.0 1092.3 387.5 1092.6 390.6 C 1089.8 388.7 1087.6 386.1 1085.3 383.7 C 1082.5 382.9 1079.4 382.0 1078.8 378.7 C 1076.4 379.1 1074.2 378.2 1073.7 375.6 Z" />
<path fill="#333433" stroke="#333433" stroke-width="0.09375" opacity="1.00" d=" M 78.4 382.0 C 81.6 381.4 83.9 378.7 87.0 377.5 C 89.4 377.8 91.0 379.9 92.8 381.5 C 90.8 381.5 88.9 381.2 87.0 380.8 C 87.5 384.1 87.5 387.7 89.2 390.6 C 93.4 393.0 99.7 392.1 102.3 397.0 C 97.7 396.3 93.2 395.0 89.0 392.9 C 87.3 392.0 85.7 391.0 84.2 389.8 C 83.9 389.5 83.4 388.9 83.1 388.6 C 82.1 387.6 81.3 386.1 79.9 385.7 C 78.0 386.1 76.1 387.0 74.3 387.6 C 73.8 387.8 72.9 388.1 72.5 388.2 C 72.5 387.7 72.5 386.7 72.5 386.2 C 71.1 385.7 69.7 385.2 68.3 384.7 C 68.2 383.7 68.2 382.7 68.1 381.7 C 71.5 381.5 75.0 382.1 78.4 382.0 Z" />
<path fill="#727377" stroke="#727377" stroke-width="0.09375" opacity="1.00" d=" M 1073.3 381.1 C 1074.7 380.7 1075.2 381.2 1074.8 382.6 C 1073.4 383.0 1072.9 382.5 1073.3 381.1 Z" />
<path fill="#7c7c7e" stroke="#7c7c7e" stroke-width="0.09375" opacity="1.00" d=" M 1070.1 383.5 C 1071.5 383.1 1071.9 383.5 1071.5 384.9 C 1070.1 385.4 1069.6 384.9 1070.1 383.5 Z" />
<path fill="#fbfcfd" stroke="#fbfcfd" stroke-width="0.09375" opacity="1.00" d=" M 1104.3 390.4 C 1108.3 387.3 1112.6 383.8 1118.0 384.2 C 1115.1 386.0 1113.7 389.1 1111.0 391.1 C 1107.4 394.0 1105.4 398.8 1101.0 400.6 C 1101.6 397.1 1102.7 393.6 1104.3 390.4 Z" />
<path fill="#838383" stroke="#838383" stroke-width="0.09375" opacity="1.00" d=" M 74.3 387.6 C 76.1 387.0 78.0 386.1 79.9 385.7 C 81.3 386.1 82.1 387.6 83.1 388.6 C 80.1 388.1 76.7 389.9 74.3 387.6 Z" />
<path fill="#fbfcfd" stroke="#fbfcfd" stroke-width="0.09375" opacity="1.00" d=" M 1074.2 384.9 C 1077.0 384.4 1079.5 385.3 1082.0 386.4 C 1079.4 386.0 1075.9 387.4 1074.2 384.9 Z" />
<path fill="#737373" stroke="#737373" stroke-width="0.09375" opacity="1.00" d=" M 84.2 389.8 C 85.7 391.0 87.3 392.0 89.0 392.9 C 87.4 393.0 85.7 393.1 84.1 393.2 C 84.1 392.3 84.1 390.7 84.2 389.8 Z" />
<path fill="#363635" stroke="#363635" stroke-width="0.09375" opacity="1.00" d=" M 119.5 393.8 C 122.4 393.7 125.4 393.8 128.3 394.2 C 127.7 396.7 126.0 399.1 123.1 399.2 C 120.8 398.4 119.6 396.2 119.5 393.8 Z" />
<path fill="#fcfdfe" stroke="#fcfdfe" stroke-width="0.09375" opacity="1.00" d=" M 1089.7 406.0 C 1088.6 402.5 1088.6 398.8 1089.3 395.2 C 1090.0 398.8 1090.9 402.5 1089.7 406.0 Z" />
<path fill="#676767" stroke="#676767" stroke-width="0.09375" opacity="1.00" d=" M 112.8 400.5 C 118.0 400.2 122.9 402.1 127.7 404.0 C 128.9 405.1 130.0 406.3 131.2 407.4 C 128.8 407.4 126.4 407.2 124.1 407.1 C 124.3 406.1 124.5 405.1 124.7 404.1 C 123.0 404.3 121.4 404.6 119.7 404.8 L 118.9 405.0 C 116.9 403.4 114.8 402.0 112.8 400.5 Z" />
<path fill="#737475" stroke="#737475" stroke-width="0.09375" opacity="1.00" d=" M 1098.1 404.0 C 1099.0 403.7 1100.0 403.4 1101.0 403.1 C 1100.2 403.7 1099.4 404.3 1098.7 404.9 C 1100.5 406.6 1105.4 407.2 1103.8 410.5 C 1103.4 410.9 1102.7 411.8 1102.3 412.2 C 1102.0 410.8 1101.8 409.5 1101.5 408.2 C 1100.6 408.3 1099.7 408.4 1098.8 408.5 C 1098.3 407.9 1097.8 407.3 1097.2 406.7 C 1097.5 405.8 1097.8 404.9 1098.1 404.0 Z" />
<path fill="#8e8e8e" stroke="#8e8e8e" stroke-width="0.09375" opacity="1.00" d=" M 119.7 404.8 C 121.4 404.6 123.0 404.3 124.7 404.1 C 124.5 405.1 124.3 406.1 124.1 407.1 C 122.3 406.8 119.8 407.3 119.7 404.8 Z" />
<path fill="#303030" stroke="#303030" stroke-width="0.09375" opacity="1.00" d=" M 127.7 404.0 C 133.0 404.5 138.3 405.0 143.5 406.3 C 147.3 407.2 151.2 406.8 155.0 406.9 C 158.4 407.1 161.3 409.0 164.4 410.2 C 160.9 410.2 157.3 410.3 153.8 410.1 C 146.2 410.0 138.8 408.1 131.2 407.4 C 130.0 406.3 128.9 405.1 127.7 404.0 Z" />
<path fill="#474948" stroke="#474948" stroke-width="0.09375" opacity="1.00" d=" M 1096.4 409.1 C 1096.6 408.3 1096.9 407.5 1097.2 406.7 C 1097.8 407.3 1098.3 407.9 1098.8 408.5 C 1099.7 408.4 1100.6 408.3 1101.5 408.2 C 1101.8 409.5 1102.0 410.8 1102.3 412.2 C 1101.1 413.5 1099.9 414.9 1098.7 416.2 C 1098.1 413.8 1097.3 411.5 1096.4 409.1 Z" />
<path fill="#6b6d6c" stroke="#6b6d6c" stroke-width="0.09375" opacity="1.00" d=" M 153.8 410.1 C 157.3 410.3 160.9 410.2 164.4 410.2 C 169.4 411.3 174.0 413.8 178.0 417.0 C 171.9 415.7 165.5 415.1 159.9 412.3 C 157.9 411.4 155.9 410.8 153.8 410.1 Z" />
<path fill="#646462" stroke="#646462" stroke-width="0.09375" opacity="1.00" d=" M 1046.0 410.9 C 1049.6 411.8 1053.2 413.1 1056.5 414.9 C 1056.1 415.1 1055.2 415.5 1054.8 415.7 C 1051.5 415.6 1048.5 413.0 1046.0 410.9 Z" />
<path fill="#8a8a88" stroke="#8a8a88" stroke-width="0.09375" opacity="1.00" d=" M 1056.5 414.9 C 1057.7 415.5 1058.9 416.0 1060.1 416.6 C 1060.5 417.7 1060.9 418.7 1061.3 419.8 C 1058.8 419.1 1055.7 418.5 1054.8 415.7 C 1055.2 415.5 1056.1 415.1 1056.5 414.9 Z" />
<path fill="#464645" stroke="#464645" stroke-width="0.09375" opacity="1.00" d=" M 1060.1 416.6 C 1063.5 418.1 1065.5 421.4 1068.1 423.9 C 1068.5 423.3 1069.2 422.2 1069.6 421.6 C 1070.7 421.4 1071.9 421.2 1073.0 421.0 C 1074.2 419.6 1075.4 418.2 1076.7 416.9 C 1077.0 418.3 1077.3 419.8 1077.6 421.3 C 1080.2 421.8 1082.8 422.3 1085.4 422.8 C 1079.3 426.1 1072.0 426.3 1065.3 425.6 C 1063.9 423.7 1062.8 421.6 1061.3 419.8 C 1060.9 418.7 1060.5 417.7 1060.1 416.6 Z" />
<path fill="#6b6d6c" stroke="#6b6d6c" stroke-width="0.09375" opacity="1.00" d=" M 354.2 421.3 C 357.6 421.1 360.9 421.3 364.1 422.3 C 360.8 421.8 357.6 422.1 354.3 422.9 C 354.3 422.5 354.3 421.7 354.2 421.3 Z" />
<path fill="#6b6d6c" stroke="#6b6d6c" stroke-width="0.09375" opacity="1.00" d=" M 443.4 427.3 C 444.7 428.7 446.1 430.1 447.5 431.5 C 447.6 432.3 447.8 433.8 447.9 434.5 C 451.0 435.2 453.8 433.5 456.4 432.2 C 455.4 434.9 453.2 436.6 450.9 438.1 C 448.8 435.8 446.9 433.4 444.6 431.3 C 443.2 430.8 441.7 431.6 440.3 431.7 C 441.4 430.3 442.4 428.8 443.4 427.3 Z" />
<path fill="#3d3d3d" stroke="#3d3d3d" stroke-width="0.09375" opacity="1.00" d=" M 436.6 430.1 C 437.4 429.0 439.5 430.1 438.8 431.4 C 438.0 432.5 435.8 431.3 436.6 430.1 Z" />
<path fill="#888886" stroke="#888886" stroke-width="0.09375" opacity="1.00" d=" M 252.3 436.8 C 259.5 437.2 266.5 439.4 273.6 440.6 C 280.3 441.7 286.8 443.7 293.4 445.0 C 297.9 446.2 302.6 446.3 307.2 446.8 C 301.2 447.0 295.2 447.4 289.2 448.0 C 289.8 447.3 290.3 446.5 290.9 445.8 C 288.2 445.4 285.3 446.0 282.9 444.7 C 279.5 442.0 274.9 441.5 270.9 442.9 C 268.5 444.2 266.7 441.8 265.0 440.5 C 260.5 440.9 256.4 438.7 252.0 438.3 C 252.1 437.9 252.2 437.2 252.3 436.8 Z" />
<path fill="#363734" stroke="#363734" stroke-width="0.09375" opacity="1.00" d=" M 339.8 441.7 C 346.5 436.8 355.3 436.3 363.2 437.7 C 370.1 439.4 376.8 441.8 383.9 442.3 C 388.6 442.8 393.3 441.8 397.9 442.7 C 396.8 443.8 395.8 444.9 394.8 446.0 C 390.4 443.7 385.3 444.6 380.6 443.9 L 380.0 443.7 C 374.0 441.7 367.7 442.7 361.5 442.1 C 363.0 441.3 364.5 440.5 366.0 439.8 C 361.8 439.9 357.7 440.7 353.6 439.9 C 356.2 442.2 359.6 442.9 363.0 443.3 C 361.6 443.8 360.3 444.3 358.8 444.7 C 356.7 444.2 354.8 442.9 352.7 442.4 C 349.2 440.7 345.4 441.9 341.9 443.0 C 341.4 442.7 340.3 442.1 339.8 441.7 Z" />
<path fill="#8c8c8a" stroke="#8c8c8a" stroke-width="0.09375" opacity="1.00" d=" M 353.6 439.9 C 357.7 440.7 361.8 439.9 366.0 439.8 C 364.5 440.5 363.0 441.3 361.5 442.1 C 367.7 442.7 374.0 441.7 380.0 443.7 C 375.9 444.9 371.7 443.1 367.6 443.5 C 366.1 443.6 364.5 443.5 363.0 443.3 C 359.6 442.9 356.2 442.2 353.6 439.9 Z" />
<path fill="#545453" stroke="#545453" stroke-width="0.09375" opacity="1.00" d=" M 341.9 443.0 C 345.4 441.9 349.2 440.7 352.7 442.4 C 349.7 444.4 346.2 445.5 342.7 446.3 C 342.4 445.2 342.2 444.1 341.9 443.0 Z" />
<path fill="#c5c5c5" stroke="#c5c5c5" stroke-width="0.09375" opacity="1.00" d=" M 270.9 442.9 C 274.9 441.5 279.5 442.0 282.9 444.7 C 280.1 445.9 277.5 443.8 275.1 442.9 C 273.8 443.9 272.3 444.4 271.0 445.4 C 270.9 444.8 270.9 443.5 270.9 442.9 Z" />
<path fill="#898987" stroke="#898987" stroke-width="0.09375" opacity="1.00" d=" M 337.4 443.1 C 338.2 442.6 339.0 442.2 339.8 441.7 C 340.3 442.1 341.4 442.7 341.9 443.0 C 342.2 444.1 342.4 445.2 342.7 446.3 L 342.8 446.9 C 338.3 448.0 333.7 449.2 329.1 450.2 C 331.2 447.9 333.5 445.6 336.1 443.8 C 336.4 443.6 337.1 443.2 337.4 443.1 Z" />
<path fill="#4b4b49" stroke="#4b4b49" stroke-width="0.09375" opacity="1.00" d=" M 321.0 445.6 C 326.1 445.2 330.9 442.3 336.1 443.8 C 333.5 445.6 331.2 447.9 329.1 450.2 L 328.6 450.8 C 323.6 450.7 318.9 449.2 314.0 448.9 C 311.5 449.0 309.4 447.6 307.2 446.8 C 302.6 446.3 297.9 446.2 293.4 445.0 C 298.2 444.3 303.1 444.0 307.9 444.7 C 310.5 445.1 312.7 446.9 315.3 447.4 C 317.1 446.7 318.9 445.7 321.0 445.6 Z" />
<path fill="#8c8c8a" stroke="#8c8c8a" stroke-width="0.09375" opacity="1.00" d=" M 380.6 443.9 C 385.3 444.6 390.4 443.7 394.8 446.0 C 399.6 449.6 405.8 449.0 411.3 450.8 C 410.5 450.8 408.9 450.8 408.1 450.8 C 398.6 450.2 389.1 448.1 380.6 443.9 Z" />
<path fill="#4c4c4a" stroke="#4c4c4a" stroke-width="0.09375" opacity="1.00" d=" M 394.8 446.0 C 395.8 444.9 396.8 443.8 397.9 442.7 C 400.6 443.8 403.5 444.6 406.5 444.4 C 407.2 446.0 407.8 447.8 409.6 448.4 C 416.0 451.1 423.1 450.2 429.9 450.5 C 433.2 450.3 435.5 453.1 438.7 453.3 C 442.3 453.8 445.9 454.2 449.5 454.8 C 448.9 455.1 447.6 455.7 446.9 455.9 C 441.6 455.6 436.2 455.6 431.2 453.8 C 427.8 452.5 424.1 452.3 420.5 452.0 C 417.4 451.7 414.3 451.3 411.3 450.8 C 405.8 449.0 399.6 449.6 394.8 446.0 Z" />
<path fill="#3a3a38" stroke="#3a3a38" stroke-width="0.09375" opacity="1.00" d=" M 406.5 444.4 C 414.2 444.3 421.5 447.2 429.0 448.4 C 429.9 447.9 430.8 447.3 431.7 446.8 C 432.0 447.3 432.4 447.8 432.7 448.3 C 433.9 447.6 435.0 446.8 436.2 446.4 C 440.2 447.1 443.6 450.3 447.8 449.4 C 451.5 448.6 455.3 448.5 459.0 448.9 C 456.1 451.2 453.1 453.9 449.5 454.8 C 445.9 454.2 442.3 453.8 438.7 453.3 C 435.5 453.1 433.2 450.3 429.9 450.5 C 423.1 450.2 416.0 451.1 409.6 448.4 C 407.8 447.8 407.2 446.0 406.5 444.4 Z" />
<path fill="#8e8e8f" stroke="#8e8e8f" stroke-width="0.09375" opacity="1.00" d=" M 347.3 447.4 C 348.1 446.4 350.5 446.1 350.6 447.7 C 350.5 449.8 346.0 449.7 347.3 447.4 Z" />
<path fill="#888886" stroke="#888886" stroke-width="0.09375" opacity="1.00" d=" M 331.0 452.9 C 335.0 450.3 339.8 449.0 344.6 449.6 C 343.5 450.6 342.3 451.5 340.8 451.7 C 337.6 452.3 334.3 453.3 331.0 452.9 Z" />
<path fill="#b4b4b4" stroke="#b4b4b4" stroke-width="0.09375" opacity="1.00" d=" M 408.1 450.8 C 408.9 450.8 410.5 450.8 411.3 450.8 C 414.3 451.3 417.4 451.7 420.5 452.0 C 420.0 452.4 419.1 453.3 418.7 453.7 C 416.9 454.4 415.3 452.8 413.8 452.2 C 411.9 452.4 410.1 452.7 408.3 452.9 C 408.3 452.4 408.2 451.3 408.1 450.8 Z" />
<path fill="#858583" stroke="#858583" stroke-width="0.09375" opacity="1.00" d=" M 420.5 452.0 C 424.1 452.3 427.8 452.5 431.2 453.8 C 436.2 455.6 441.6 455.6 446.9 455.9 L 446.8 457.2 C 442.1 456.7 437.5 455.4 432.8 456.2 C 428.0 455.7 423.3 454.7 418.7 453.7 C 419.1 453.3 420.0 452.4 420.5 452.0 Z" />
</svg>
